<mxfile host="65bd71144e">
    <diagram id="z4WeKjyzyP6GaS60tatt" name="Page-1">
        <mxGraphModel dx="1780" dy="516" grid="1" gridSize="10" guides="1" tooltips="1" connect="1" arrows="1" fold="1" page="1" pageScale="1" pageWidth="850" pageHeight="1100" math="0" shadow="0">
            <root>
                <mxCell id="0"/>
                <mxCell id="1" parent="0"/>
                <mxCell id="2" value="" style="shape=stencil(lVrZchs3EPwavqJwH8+O8x+ushypokguWbn+Po2wsFk0iGb0JpHTXMxMz4m9hE8/Hr98f7h4++P97fXXhz+fvr4/XsJPF++fXh4f3p7e8dclfL6ET99e3x5+eXv9/eXr9f/vX7pk/+u31z/6L/x1xTmTWgd5+/f1gxJMSv9+8vNV/vnp5SQfTCH5ZIrfyycT/SyfTXN7+bKcpxof9vLNZDvLNxPaXt5BYTcBqjVeAWCPOgOciVkAkqlhBvjxyW0ANMwzIJogbOqtiXEGpKHVbYBfnpCNtwIQjXMMiEUAksmLDikKQDZ51gGO84J4YIYnJsEzwqwAxJkaOUuqdkCZAfbeE8IMSHccV4ybqRGL5BKsVGcdotU65PF7AxCidhyIMHva1/HJDuDmI4FdRXEpGzsfCRHS7hxptlIzUUQorGpnZhzsvS1fTZrlYdMqUh7CzZG8FQoHRNtMbTeS4G35YOosH0xQv5+Yp8kEoW9A5MwZDKxS8jB3miPNFEHS6EylDCmjIMI9lL5kio+ZowbnUfL4urC+IhVFVIxI9qyqpFlTZ0JHac/kTZ7PEySfkURyIPmi5BFg8++7g7FbAEVkHcn1NgDZfWZEd7FwAQCBVIgyqwDAMWwHa3dGKgTIMpUCQFEMv6iwBIBol4rJyg9h5MFTwQlKh4MHB7G9LJoAhDnS0B1lrYOlXiQYL3JvWnIL6ngTZRk2IR3QizRFjWbszCW0FlYond34+gRwQoccuOcEIAs/ZJyYdCgyo2ZUkMKAJvxQHBfNWiX50NsUxwBVpNBWh8wA5Qe0W3Z5gtKhrp0zdBBHAtVaZSslEaJwUyK25lGqbwPaYtYkn9DcGA7O9Bbka2FQ7QTIoji3OKx+buZF1mh1UO0EUKkSgJoYoKzUGifjmiT5AGDy6Y4BgEYhWuUU6ezRQh09npXpG4+gJqP5UbZ3AJoM28HHHcDRE5IePSvXdQAkmapxc2JqOvW1suiQ5EQCALVW4GMUjmiHY09mVVkAAGpO2pHbtgDixmHo/3mkno0VNRala5ID92pWRFBRVloc12NUezovaeMOW4l80MHqeGAdspwa1gDqNetjMQrPqcZ4TQPghurU10SDGFXT6prKwO+qAEuyRAQVDaB03GNU0fXDgLhYCWlDeS6MxchZB1VSHLcn/Qkif8OvcdFBFa1eDyhXFsnvTv+5Pel2U09wCzX0Yq/3M5kBVQGg4mzWE+N3TVlezqRKSrFj0XECKPahsaQGH4AojoTWlfN3Hc3srjnm5UodCfo2ADqsnrvT4FsGeDWZIX83BqgI6tPlwj45LIYblTqrI/mlUocxDW53ApRdm7aS5b0b2uWgBi3LFQKzn1WjnF1W724YegegkTpHuVZOjo8Ez1RlVmcijdRW7g4BIMfFKNsTACrtWqqc/eBpWp4Er/cIns3qnb4BCbx8d7qJW63k8jDDboHVKJMV2X7HOlqF0wJIjRB9t0JHauOT3Y7PFwaoVBkdL+28lS1WaNz19SeII4XMFzkAqAAKxzL/ZFYVomAOrclckgug4LiyuyAb0fW6y+ltywrwXpoVgEKrvibjIVheMYUkL3L6Op3uNPxY/u0AdKSoLwTCUnZRYtScBT9QycpRrsn6E+ja0Y7eYAcgaqD9UDMKALza8IO/O8fx1qvI8dWvjauXW2CfOUR7l6i4lJaWrMj2py/GwwJQVzluVIMTwKmhZkmVTd+EIuSpKPaJQ1gJAUnpvvfvQgeEPC3i0L+r5sQ5LlnNyohrLN83ffIOnje0ur2Ko88+75dUMCyz7rGmvilv2WcIBeUzu9xFO7m+Wu73qm6U1tbNjovgjTzZvzRpn2XuRqd35/dJvshXGuzork+5SPHH8shQklw1WI7igj5S+2t5B0UNxJb3ynfeBHB8/wl5Zf+PvhNzXx5//PcCzren5+fr+zvn7/mFHXx0fdknfP4H);lineShape=1;" vertex="1" parent="1">
                    <mxGeometry x="114.82914317464429" y="77.40532951467856" width="171.29569053389173" height="48.91754450281053" as="geometry"/>
                </mxCell>
                <mxCell id="3" value="" style="shape=stencil(lVjLbttADPwaXwku931O0/8IEKc26saB477+vlSNtUVKniA3ReZkl0vODFeb+PC+e3rbboTfz6fj9+3v/fN5t4lfNiL71932tD/r0yY+buLDy/G0/XY6/nx9vvz99jRFTk8/jr+m//DnguudUp5Qwn8vbwIV/v/i6yX+sH+dxzPFYOIT9XA/viWK1cRXqij+uvyI71Tkfnxtfj9BiMECNZOIBSQqCQAC1WgBmkK9DyiNQjcAPVMBOZRM7ACJGihCERJbNGnU+n1A7pSLAcRIAnLIhYpNOjbiDACRoq1b0hXafUDq1GwdUqMMTikVCnZLumZBK8j4+QrQUwKAqFywgJIogDrEQmybW2vf0QpCySZdI0x6qqtNutZRmXVApmxzUEYJ4IOIr4NSNqMVmFqygEoZrBD0WC1FVURQLwXltO3WLhQARZWQyW6p57HmOqBQtQTqjUqBALF1UOFEraGi0tkDEqCoylZrHlBBLwVV4gWggxyqp0NgrQPIIY8qzRZAKiNDFmfxBdWZeJFABPvh0QSzoiE+s2enxifQ2drYi3h0Pkpm16YVOkkaLTaLj2D/1at8v75Z9+ZR/nk8amoZvJ0BElCjySnFAypiwUIgpyNFTa3EFA+A4lIoswcgFoTsJXjqOmCFQV0meABMOizqppUBx6oZWvv/mJhLbemg8aL3tSkDpKd+Wpi0CyTAC73uxDCeFzXLmMifilfjtwfaIxwi00JJw/C49fmLsnNALNXakZYF7QNiBi/V6sloXFNiVptxY+rYYtk2dcVatOyJiuc7bdJgAToboUOS5tWoREibGIa7zOY7NBBGNbTFBJnAserM6y4jOqNG1EhhXIZmUzADy0zZ1yHW4ULrgKvFzCZ5uIJKg01a8Cll8aOO8iMDNuTkR87JSdFtRLvf5qADXAR8KEziFFIHc9De2jn+zhaggpXqfQe7iF4Km+2MguObzyARg/hWfG/z0LT1+OptkMe9fj1ee6C6eDhasL+i6jAGbFkFtPh45Agq0M5CsAPqfM/i49H+VbJ9vgGcv8413Z8nIv5t6LjFI85Mk7HfT0W3A154YIANdBs5bvERb+hz34E+jNeH20enl/3hcPlmNf/df6TSV5cPXPHxHw==);lineShape=1;" vertex="1" parent="1">
                    <mxGeometry x="152.09371884964548" y="30.897768152073922" width="23.005613423814793" height="139.57314228655605" as="geometry"/>
                </mxCell>
                <mxCell id="4" value="" style="shape=stencil(rVnbTlsxEPyavK5sr6/PlP4HElCiUkBAb3/fcVNDvD4ZQOpbkuM53ut41tnp2dPNxcPVLrin58f7r1c/95fPNzv9tAthf3dz9bh/xqednu/07Pr+8erL4/33u8vD94eLvrJ/+nb/o7/h1wEXihTXUcH9PvzipMS/P3w+rL/d3x2tVyc5TetVciHrvTSd1meJib4/zeubaKbrfZvWey9KDML7vJ8BKs0RQBVnAHDBEwAe5xnQxDUCSOLmHAREje0QJcxO4xeWhf549gF518B9KDOgcZOqlDrXRZBUaWHovIMmCaySos2DFqmsVLM1KToJzKQmea69GCST0ohI05zpGKURH6JKMIBCawmANmc6tuHVNiBKnGspBfEkStihzialKIl0HGJSzQ5FHGlpRCnMeUgINOkHpMnPHJMDrVYk7l8hvADeyIOTZnYoo0NOOW0AxVGTYh4xeQHgFSRxyUmdi68kSWSHtJR3KdJIprNKnKNUEWglAIR13qHyPMBiczjUSMsbBiRjUhYlUaqgyrlaaxXPANWGtbZRv5uA5i1VNk9Zo6mkmchaGDyyDcjW6YZqJWFtOD7CDMiSCcA7Z0+UBn4mPYrHzXjdRhNuA9Jo4SNAIqluEA7VAhiT1YXJAGjEJJR/msN0FIdthBtBOd6COAFaqYtNhQHAEgsgEpPApWVJhCPVBIAaQKXlB/L10QIC5w1bTIVHqUpaAJkcKWXpagAS8aH6waXvBcCk9BGT0JJu2YHJxP64LWFlNAAeKhbAuro3mKGBF2I4RTQ2ShDT5OAFcaWl+ApxGmydFhZgpVGapeM3e3Q5efsWJHM520OoO0G8zn6IvHdSWaqi0QI8MQk96pfaKP8ZYNQ0CJqJAQDMkIJzjLFrF3lmBy+R8QwUkIkSz3RSq6bRtZQr3QLIXK/D6TmsOGQyE8dh2SFQcYyRxIwQkDhsHMWUFOaWK5WKMkxmhja66mKzX7AzR9HBbdvqYZFMXeuSBsI8rHNYu5omteRxjBr5zfU6AEYy9YmAZBoAk7g+czCTkt2hFzzTWNnO4OnFyFOAagCBSiy/ZDpy6eqzJbJe8G84bcbRNJp2G6BDqB5PyKw04KIxydH7HI+RZN4BLcXEcZFqbgWSKOOx5RYh0MIIg+SOL0JIqTp7IvabFtLPi1LvdzUkQE7C3DrBjzLZDqiVVv0yitWEFCOiM79Pk2IOdKX2qL1Y6vd17LBdVBINZ7ZTRh5adJvgbceoFJpcc364QWQnlhsl4mhqFx3iRqxORDIUs5wHMlWz3JO3Vyso3Dj/t233VvO70WinCLpYc5g4wKFkZmBHx6Je99G6y+4vdQiB1/VMvSOcy705u7gIi3xyYyI5tf5D9/Jvr8eH1z8Brve3t4f/EI6f2z8N8NPhDwc9/wM=);lineShape=1;" vertex="1" parent="1">
                    <mxGeometry x="441.97161673852565" y="40.02257200561439" width="10.846142012303517" height="186.60159989691988" as="geometry"/>
                </mxCell>
                <mxCell id="5" value="" style="shape=stencil(lVpJchw3EHzNXBHYgTrL8j8UIcpkmBYVFOXl9y54As1GVne2fKNl5ACoNSvRt/Th++Onbw+36L+/vb78/vDX0+e3x1v65Rbj09fHh9enN/3rlj7e0ocvL68Pv72+/Pj6+f7f3z6NleOvP17+HL/w9x3nXW0DFP0/93+Q4FL9719+va9/fvq6W59cqMv6Li6l8/XZdVjfXMvn64uTsK6vrvbz9c2FuK4vrsbz9eJiWtdnF8j5g5ojr4DkEjlQiC4bQGQ7JFcKAgIxUciumh18I4DiWjQAYqRQXQcvRCdCAN2JORIzawzOewQ0coe4HWDnuEaOpJHk4UjVRbZDdWJDlaRC7MZK4jw5UtJkWwHiqadTdKkgoHkCyM5XBLD0ScXlaI7E7lCd7+g4IbGkgLD6oVVXiB8GYC1JtVFPHwDSrAqngNVKpbt0caTVD0WjNXDAatYs8yd+0qw503xQx8l6af0JVvgU0NcE0lro2R0UsN5BczCzO2iZWa0UGi0z4w6rH7TaRu5pWa1UaIamPm24GYmW4uxdX38/Trccr4+YboGGRdbtwUIz/Y7XZ5c9rGdVNRdX1vV6IVJfcnMlwvpE7D+CuMH6SMpR8fb3WYEsASuqn23ieH3C6qXVjtinZLSPOoSRkYJpLDPEz34fmpR2UuYwBbS1OGrEXeyQ1wjSphJJyCkACE9qswudAqB0KYe7ONIKKJFm8bj06uUirpA0Vjf49Q51YzRngLjmcQszEk8B6w6N937r6cGQSKmwnlZ2cRWrQBaUDfA7dNhhY2XHAFNN9UjCjtSnX3eUqrD81HSBHZS7ErNWrYcVzVpI8Gmnj8AjPZ1HasY22LoLxHG1urz6QfkLayLKVvp6pKa+ZwDB3t90JCAJ1LYrboBI6/yIfgOgO8QZmzsAI556xSp4h0wurUZsCa2U2ZH6JIEbQAOe7KCBUNZmpTnNPN2j8UOnjlPmWyC8/eRMx4Ay299+TCLFWPOrQXiXmSHHACWyMJO0OUMcAwRJm/5EJlaSjYLspx5yaTGxpAA29Yh2IKMxBHJpsZVPKG8Tqxp0OmLI1g12AFaXpE+b7P3ALt1x1Bu1lQSfArChVErGRIzjKmV7CsimP1CzyoGV2DCpAJQNhJKT4D3qBiMeL7ZYb63xyAYrMQmh8Rg4AHqWxmNk4aqO8AhgI/RwNVCBSgWfEUwJd2CDyQhXj5fubIeG0SdpqlJngOrRD2wiVkBZa6V4nnLN1MqLwtSm1feCD8ugbsTDStm6AqpRMyMDiJHFuGilgNQQ0HkVqCapG09qIEyjGrNYEqTGQ4Pi+QBShobGRQKBMqHBx0TlYwArrg0HCHVlYVYy6spIWgYwTU4BjM5INPlwsYPH8B53ILE0lHzI6Tbn8WOAyTitS5kEn5IXqPfDDOxIeY48u3JPGVY0E4dQaa+HgybHBgileAcvDmQHJZEg4ownB8bW68EQxKr3YM7QRgNV6gb7B4B3md3BcGkF0CFIzJE8TdHapxKzuwNTrnUuE/NswsSiWoxZN13hbLaEqqGhwcbdGlHq1hxk+lL1qEcJv4NO4Fgqy5QJjgENRxRpXAmppghse55qZKBp+kvVDmZ2rc+sCpRoCBOnZArAOYv3LAVgFUhcqYxmfOWzogLETtQXO6yOGM8gzHMRdbjKqfEwK+hwiTaIIc+uGZQL138DDmbjkYIBIj7avT+ynQGgUccw9cszAMhqIfMHaXUcaPB+1rafFLGFai1DJE+4nj0iiEkfqrTkNt+FdusJu8rFfBIwLXC8PmNvUANF9mqyKUM7QGXPDnGWhw0QaAfNHh/4AmeUyUxYIVEWoAAPVa9SlXwA1jvEyB8pO2anpgKz0gCsl35/ej0DgFnVlfQZtCMby52ysdRxOhkVhr05dhRbC1dnB2D1gzZh4X7Ia2vQskpfyPuBdsp0eAsYquDFkYDJNP72a2Jp0Gj2WUDFGiadEvVUULPTFs2oT8oYrWPmYpeO89lqB6Cv/B6VTeEin6YLlJkxzrAvRiq+Vo5xhng6ZmMlrppoysPwrXyPSXDj/daoJqy2hj4PsBuYGN+zn/oogHFW+zHRADDNTq1UEMDYW0jYUISXe+0G6GkOMMOJrqfjj1kfafoUfEJVNwsre4YBFEoZAj5UDMGPRIU3QcE1/k2v2f8+sY83CmifH0acrI8gZTT6AOxxxJBKKYnH5iz8Gd6KyoW+YNv1mRYKex5OtO19IxX1tDRabZXaM5sEYxLG//1I9Hq9/vH+ReqXp+fn+wet+/+PX7DqP92/fk0f/wU=);lineShape=1;" vertex="1" parent="1">
                    <mxGeometry x="393.95009230188816" y="69.2587538737398" width="233.40029170013213" height="57.1726850071168" as="geometry"/>
                </mxCell>
                <mxCell id="6" value="" style="shape=stencil(lVjZUhtBDPwav6pmNPczIf9BFSa4QoACcv19euMas9KaBt7sXfVIo6Ml7S5dPN9ePe53Gp5fnh6+738frl9ud+nLTvVwf7t/Orzg1y5d7tLFzcPT/tvTw8/76+P/x6tFcvn14+HXcsKfI65HSW1Bafh7fBKl6/8HX4/yd4f7tfyQHox8ltzelh9dSjfyXVJ+Wz6GIMEqiFFGIhqG1GgBRbQQQJOgFjCkMEAWtQBViZEAgmQHyNKJhl6lDQtoUgcBqAyrIQXpxKTWpRYLwK1I4Brimi2g0Tu0ML1+yoxI3Vq7ZJsamQeuNik20nmIBgro1kslSSJurUOCvUPBEQTQokTrpaqSKwEkabbeYGRgAKSGrQfobCTSHQVkcwlHKNGAXOquRINUBij+Dj1zk7oPHJ4oYRkUULOAAUezElVJ1kso2kB4ZiQZNnBgqkByadGgHlCJho5stXEAUykPnCughdpYasSZOSsAo8oaZFiTVnR7FlGgonsVndiUdRbYClCITalM3loBWOSSzterQGQGiLNDnQBt0u15QJa4AUTClQk+cSZVqeTS+cQqK4CSO4CG8gYQWKjRP/QzgNamAR80CSzgC4JfGiXs+u7iVpJLqNFWPKB1CnCNekkNYhKmGe/WQb209N3sAYUwWTt12Q8WUM2bgey9Gs0b7uM0gDYbNrdmRIPO39QDGH+jRkfxgaiEv1Gj/g6gY0KWnwfoho7RIVhRp00FRTptgDZcMqHLJealPKfIVR/tjCtBrskCAmUy3eQ3ZgHGlVp8jaLJdFJyGmZfXs0zjDYwnEdrEiYm1kcjNLghrs8p7Xw9eCLD0FdI3KLn4sz7dJC0HVvJ+ZuFBnMxS4vopyuUX2V5N/vrarJnlVA8I2F1YP5p8+1qN0kkS5eA2bFk2RFJwJASxQKwkLFFAK8dgeEIVsvY14L1EZbKzuogbWZiuo/BomavUHiMdbNSUgaGuTU7+cjOTxLdFj3p77x8nV3sVT4wYol+K8HKwAJw2vpf5VkOpeoXsTAvdL6lZT92vtMzdTbhlfw7k3P39rBFEvuNl6drYfbMHmh+Yp1v9vxTPzw/t3z2M8+78vjx+k3p5nB3d/wktX7vv0Hh0fH7Vbr8Bw==);lineShape=1;" vertex="1" parent="1">
                    <mxGeometry x="156.54870958567517" y="156.7850727365884" width="6.306317755709188" height="98.81644010162404" as="geometry"/>
                </mxCell>
                <mxCell id="7" value="" style="shape=stencil(fZbdcgIhDIWfZm8zQAg/17Z9j85U606tdqz9e/tmZ0c0uJ47xP0I5JwEBl59bp8/1kNwn6fj4W39M76ctgM/DCGM++36OJ50NPDjwKvN4bh+PR6+9i/z74/n6ctp9H74nlb4nbmSKZeJCu5vngmZ6jzzNAO7cX8FVKEsBuBKrgKg9oAE8gkCbLeUhEoEQKSUDZDLeWYRKIl8MEDRmHwfyBrBG6Amyu4+kDxxMoB3jhwgYu7TVAsVkFcWCs4CTBEoF4RctKeOxHIf8IXYpikHikAIf+MNUW94AGSSaoAoFIE3AlOyeWU+p2E5S9yfQZcQILVuQOwZdJNoS9Ls3wA5u2XZTIHECqeJ9kDpSaauRiNVcAY1QhdBzeLBli5WazpkSsBLV25uRaqWRyFawTQzRRIQYirJzq5atkBqLfouwqUxLBepthWb10vrWZY6UOAeyKCCtDV625mm9gmUC4Wc3VLJMMIE1BsA2FW9JraVlQB7n3c9oMKhCLEvIM1zBPZ25/umNQ1tVEC2G+fFCC8g398O2hNQuQlVu752DBfA+q0ptnqO5JFmeuIuo9DY7KjY71UxdJV4EntifPWorW++R/dC4t7V3DlIB5cHx2bc7eb3yvX//QNFp+bHDT/+Aw==);lineShape=1;" vertex="1" parent="1">
                    <mxGeometry x="178.86796084247567" y="255.37531245851915" width="4.672539772115442" height="4.665236216357698" as="geometry"/>
                </mxCell>
                <mxCell id="8" value="" style="shape=stencil(lVjbUhsxDP2avGpsy9dnSv+DGULJlBImQC9/X7mpl5W8OcDbxquTtY5ux97x1fP9zdN+F9zzy+n4ff/rcPtyv+MvuxAOj/f70+FFnnZ8veOru+Np/+10fH28Pf9+uumW/enH8Wf/h99nXGuUYkcF9+e84qi4fwtfz/YPh8eVfY0UtD1TKJftS6CclX0m5sv2mck7Zd+oAvuUqer9+EAhXwbESrFoQKJQAcBTCxpQocucKWkXgh+kbQM8Fc1RiOQAIBRKekvCak4AwNTMlhr5AACOWtJh9uObmwDhJDcNEB8ASz5TYw3IVIAPEibWLHEbRG8DIrF2OgaKIJcE4LTTMQ2vLgEMS7ERg8D5Ml4PQJLyQYHz5KsGFFg/IY1yWerNj4S/lHymoHMaLWEbIMmnCyhLiYI4RGkZOjWKrHhQ0+K0AVQYB+Ek6ThUJge2JF3GaVprIQ9YytVuqQlvIA6FKepsbWnwtg0oVHRN99YMWBLA/9crQAadr0hfahZQAK0l2XoQQAO0itMuTwDktLPZ6p3DkauU6vQJ0L6zeD3vCfCa49jyClARQJrrxGtGycRUpsglNBQj+ckHRk4n2/oEgKZiLuSmLXkEaNOcXla2Q+2JJ1odyj62faZ/AZVcspO9O40qSLTDBEDNVUouswVEVHLFqp+eGnhLc/KhqShO56ltVFRybMVGrwf0BW/bxrs1KixOe2og1JJ9trsKAMwgye8YJ68RYJKtnVegZ3qNzu0YldxnAalN6SqxBD4k8cGUnB9lvj14pxqVKYfURmTbXPscBYETLRC00zKpC3CanU2NEqEPolxN9nW1gTTZ4uJKz2SkXP2GYkICaFEKa0mGSCLWrbVrPmDvrFbvohJEbSnGtWoFMXCWoC6LQU/yNmTcoKIMtqt2YQ8CEEfWr08OqDTH+F4dTSLgR/JF+ysr6HTlJ+kmn0zoZFLGuF8ADNuXUGSOMl3nI1VfxhBYnUE9EumT5pbjkwdB7jmgS1/O0RAwCzGoPlO1kjtDvZDnsI1z+KWLiaz/38FZXpOVF270sm376aLBwZDVOorqzd4Bfpqz3d3BKmhLeFb2gM8WrcJzY2HbPo1D3Qf3X4Yi/Rg/rY4bi4/xv3VRheK7EilvANQmNgFogH/26ux9e3l4u6e7Ozw8nK/51u/tvZ4sne8E+fov);lineShape=1;" vertex="1" parent="1">
                    <mxGeometry x="158.09463006684427" y="242.5849137220356" width="17.810252958191768" height="274.6690015197654" as="geometry"/>
                </mxCell>
                <mxCell id="9" value="" style="shape=stencil(lVnLUhwxDPyavapsy88zIf9BVUjYCgEKyOvv087WbEby0kluy6AeW5bUankOevVyd/N0e0jh5fX58fPt9+OH17uDvjukdHy4u30+vuLXQa8PevXx8fn20/Pj14cPp7+fbqbl/PXl8dt8w48TrjSpdaJS+Hl6EiSn3w/en+zvjw87+xYkWXuVPt6270l6N/ZYkNkP6dnYxyga3gaMJC1YgEpTAqhSigXU7RWXAV2GdSEOycSHGIIEu6eUJHSyxBC1Xqcshe2pybBhSHCiUq/TsAC41QjgvIFzoKNE4jUCMZIFKE2lgfc1CyjSCQC5EWwgtIuyZEKo7Qo5SiLH2tXHIWeJDBD8lnKVQQCtLYAhlaRrKz6XShKNBKASrA8l8y0hDmoBTTLZUh1SogWMLfaXAV2CBdQkKRNAlW63VLNkUkC1SHGASnMJ74u2gOAV3RJ2bFfAuRWSfDWIOoDKIIErXaKjShQtAxSpNtKtSy4EgBK1AOQvS74S/JbA5404ndtWkGdApk6jvopbAQVEfEAFO16atEBWAEcEGwcQDwVkqZY1JrWRAgIxOh9AnpXkEqjXlSjomaU3uoHabEVTioS9E5qmJWO0mEKOFW1fgwc0ckqxS2oe0MkKsWy5uQOwSMfkeWnXWC+zsdcycwWSrdjR4vMg5bBIjekysQ+exWBfSZgX2TCDRkgs+J4+dQQ70Qvnw9qheuED+0Cyrnman9KJCqVNIOwBRMVA2vWlDgY5UUi7sbgc2BGNZUuDV1rYkngfBJZE8cIKTE5ihbb4UNkpnV3c5ymrZbDPWjgk8RCHtfhZpM/r/2spY0d5WYD4rFuh7F0mYYtboezpjlB28HJhliYv5eWAMgnB/9rnbcbZFUJg+v9SxyHnD/L1bJ1pAwG9D0dGiSqwOJYQhE2eXK4DvM91/k4bCPi9L9qCDauzgThApj0NnT/bsE19RIof2sKpSCiwQvJUq5+qGp95dPjAQUUyAoOgqvZYoVM7Se2sXoFNJcwkW/GMN7U2S27MsjYOUPNUdiL5bfLNeYGUA4YuR2BT3zOtvZAwZh6WS3NKs1sqjQYOU5pTYHjCKKxUfxWDNRMDdF9xmZNYXVgSkWH1gFOvlueh71m7rW3jiN2EHkngWvDCVjvVPC15kaeF5lLLXnaq0sBhQq820voXH5pvt/Muht0BLBcf87aHAEAqzunE52cAHHuDbdnFRztn/+5SrDAfms+lyG+swEK6XuyxOIRtgN9fHbIJXT1rNJrd4ACnqzKVw7rQWNjK4y37qs6eBU2b33/YxsS3JuGYnX1i3W14kQEVxEfz5t/Pzmdygz+fQBQDyKd4f5mGBLvF4u0Zx8cL7yeCpOga38jva4q3Z+NXOV8l7uLL7P/zLv/v9vjx58PBx+P9/em7w/7//kMDHp0+Uuj1Lw==);lineShape=1;" vertex="1" parent="1">
                    <mxGeometry x="440.70373984702337" y="217.58737302324994" width="13.334153186292724" height="273.5747067397416" as="geometry"/>
                </mxCell>
                <mxCell id="10" value="" style="shape=stencil(nVrJbh03EPwaXQmSzfXsOP9hwHIsxLEM2dn+PsUIHA2L8+ohuUnzWDNs9lbdzQd79/3zh2+PD9F///Hy/Ovjn08ff3x+sJ8eYnz6+vnx5ekH/nqw9w/27tPzy+MvL8+/f/34+v+3D2Pl+Ou35z/GG/56xXlndYCi//v1QYnO53+f/Py6/svT19P64FJc1ufmYry9Prpi6/rserm9PrmY1vXJFfH+4vz2/ijeX12l99cp0eX67syv5+NdVOfjXVsPqJgzE4C4aaC4KiQI5uoqcumuChFCcrUvgBpcrQKQXVuFruZKEoA6beAA+KnHa0BjsyjZ+SAA3SU6peCKAAzDzqzorgDBxfULsDyvLDu6sB5r9s4LoaO5sAqd4AvCluAMfv1CCq4JW4p5bmACrLqmtoQNrEKbua6+UFxfTcO8jBdwuFYWAF4RlB4aW+s46CYAfdrmBMC6kpDBwtTrAYhS0wD0tpq382JHFqcDHyK4pNbbNIO5HmfqxfrsbH2/yQBghZ1nRCn1gcpRFSHBhJYBIH+GCFl9oc0ofTILFTEAaKsOTJuFIWLQIdX5iuvM42cEOrzNZGoDIK9qS5BKCA3v9euWcpShPkWOGIh6QQFsJqcD0FwQikvJZYrcNjPkNSBzAKh1PrkG1LmBCWhe2hIOMazW2oLLwp9Tn6d+AqR+G4A4TaaBLam4CjURCwBAHWs2l1dbqn3GkGtAYvMeACVDYdpwb0uw/s6AJAJxhgNtQlfxBTCjHlgPKtSDaqbMABU1SmIHAkAZH1hFWc27xWld1wBYa2KAqS80l+sGUIQVet22pL4AskY+3Q7mcQ2ILhcGKGICl2+Jj7WJU6qZ8wMAKmrUwlwJAMUoEVRss6WseH3bfDpMzVwDQBs241NZdMSITdMqTQ81BQYo8242LecAmPNChpZmYDwBijCNlqcHH4A0vfwaUJgg4hVRhMq2R+8iyVXrszw6AarYUvfMZlqVCaUHznEAKPrToaY1GEOqKPTQdz00SaN72Xy6y8TeQbA8A+SW2qa4LjXdt0oXgCqiNwC0JWhG5WkA2npK0EwV1goAydBtMt8bxfdBnA9Elh7Ut2gM1ahIBgA1EHDSKhoDkFZjwpMoqEA/LOEEaOoLbTvXLnssAGTPAFWgABCNhVYMCz9TiQUDVlQAP7Mest5SnQ52sg3V1BhbIsVFSZiG0KuPdl01jWOlKNBn8XtTcYUBqnLtO9PtLmtrJR4KGVSJMsybjC/I9tUwNeNjbaqTc+GjSRvTYc0nH70jRCOp6z2npoD/Fj5vKoIiU5fceLyPmhReF/n/A1E3Zd+J4IVz9ZBLGWzikgC7VJwJtsCAOvujt3K1JQbILfnNSzV9GIk2MEDSuD3S6Bbz4C8Uy9Ikp7dYWSahdb8VpI2amzhoxTdAC8MW/EyYxqirtjhwhx3XxoAoAODfeS0JoEpVyw2GnxigyO5eQwyComqIwuF1cE31hTx7n2fAnUqrbgChh1HLbaek8uKoFssmtNjSXo8OgCqRG5eXA6DK/MpdrDcKf6tq53Csj3X0BTZNq5Kg7HFJj3UKUv+madlu6dyjBUA1jff+zADoDtCFDLrH1DcZ1GwtG3dP4NOqkZDDloHCtK5brTveUpRbSo2HX3ciX0Lh1BigCqdUJgU7G5/quaatsVal4kaTduueKMqUIke+2mQjYW80Vy9737YFAXiICRkAsG2OqtLu6N+vX4B1qcGRbfQ7VVkG2bGBAxBlfgAg0Cyryt7GmKOsWzI9hLS8zbKKDDOWXFkVF6qs2s14VBt0j8kiazpovjREpEkNTEPZkmd/iFmW+WOCuG4pHtzgEoCfaS6KYyhqCNl4BvE2sLoGVL6GAJfK6guFu1gpy6SIM6GLFKlrQOKiPeupXzTOornJGXs83OUUBFSdFQMbXyky7UbPVBpxSTV0xiB05Us16esXW2tjTDmEDOPqAjVpkxQa7uK3jqhKWeP6BW3JJNENdjEWkVuKLAPyg+6TcRsYx6qmTZ1jcT2iwjUL5YECSKMKxYWdoRTZVMuc38AAlT8bq+DO+m0wNQZJ6sYMcwaw6iRvUVF4KXo8GHjeMu7XiP1sl5CGnwkL8tzKxXov9HsULaf9q5rBb/I22RnzXKOjhlD9GM/nA/tRN2u2FhT0q/dDGQr2owb3nhNU0bHaswMj8qpW43+9tXd/Pf54uyL46enLl9cbhuff+UohHr1eR7T3/wA=);lineShape=1;" vertex="1" parent="1">
                    <mxGeometry x="116.2910107297846" y="243.22745416773841" width="244.9414622662389" height="48.32431625210927" as="geometry"/>
                </mxCell>
                <mxCell id="11" value="" style="shape=stencil(lVpbchw3DDyNfll8gY9vx7mHqyzHqjiWS1Zet08zKo6GzdmW/beWiSUJNBoNcO/Su++fP3y7v4v++/PT4+/3fz98fP58l365i/Hh6+f7p4dnfLpL7+/Su0+PT/e/PT3++fXjy7+/fRgrx6c/Hv8a3/DPi13vLudhFf2/L3/xzvz/f/j1Zf2Xh6+n9a243Jf1wfVye32trrRlfXIhivXRxbKsz8732+tLdz3S+irOU8w1v6w3V7NYj+1tWV9cqWJ9cnH1Z3U1yPV+9U9zTX9/X88fvAtNXjitBwrBFXXjsu2Q9A7NpTVkIbuWZMxKWg2KMwUi7/LqpIA9FYo8oxSwVrDDkQgWA9ciD3DpsOICwJbAKBPHh4G5rAyAvDVwgFJSbo3TJ4dBd1EZeM6dFGSyWZ8nPgyi6wJLVl1bvZTydPS1AdIzrAbFVRMGydnq1tRkwpl3dTXI3hUBvlxdXqGRozORDzlxpHOWkcaJiWNycUnEAV5vaz7k5qLwEkglEKuCN8UOADN5yTRrhD7DdBgkCT6kPLGGgbmVAZhvhYYVF9SRECY6Up08cm2AlF/hbcCSQCsM6ppAyBDFGsNgDVzRGYc7lPVIyPIoiAzUS3SPiqGocsRhdSuIJ6s7tInNw0ATGag3Uwk9RMS1Qdy8VLWBOSMvtbnnrXwodCRQmwAfMi6tJDBKjKAZ0BbrgCBzGixka1GEFEpiB5BKXQNXkXEicEh5KihVa6uRwWukqzmv2LtyfYBBV2UXPiGDMgvAraJIZPwqMK8NqvPkpSaxBCDENadrl3FAXG3dofmpDa4N0uS5k0EXCVQPiXoYBFlF4ROKdAOPKL2EOk0GScIbBiQSW3ZRGUA2r1hqwJLSfHme+GSguHXEgY5UZEEBNKgCtSoLO6iX79AkVQ75Q5Hukr0tcgJ1L70EceI3A6XIcmCh28PUaLeIrK9e6gc936JKClxPssUCGffVSz3LnAbdU1HsJuG9F5Repja4VbIqeQnUpqpo57Lb2ywA1wZbxqETL6rs1il2TgbKrQE+CWzQBJYgsKiww0BhCZ0nyZ+uVWVl2Rq81wWFZevYQMVtXvB8ZcGsYXLW2afCRf7CQwp4fkvnrhWoy9v5k0rOqfpP6xXqbGr40/og/NO42o71SqOHqfnPBuICwNyeBkrEANV9u3LSecOZ2XUq1wmZk4GaToRN9QwUqSOVecUzTNWRsgt7ZiqDcBHoLoDX5v4/mpnF+S3QSsMkVuj9jU6Jx4a9S8njZ4jOmSnO4y9QYQLZP7s+btTYZKZlFi8oOKpt24Z0qGiqgencz6NkKhmMxrNTALK88OsI71T2TbeFRjvoucqoBoS5MAeJ15jzPFeBOCpqrmJz0HnSawp1aNqoLYQiVGmQbVPmx2jmVtNGk0yI1CR2QNOWSHPq4aoVHhtCaFfVFrbt0lmWfeubMtfNgnUWeKMdUVPAzkJhNDwCS3Zk46mlUnw0vGRs4NUOeTPw82njlvan2ll1obJjAnFqbYuaGGyBG32fMrCphk7tuSojOboQ2ECNGPbRJ5pdxZMpz7J0GmJERTOdx4bov5OIA6iVJvs16vlW5HnvaEVVdW5bpL3m1jwn1KdxlTQI3HiW5kwIw+0VEM2xfJHhmUfRDZWx8i8mL7C9fYzBjxT+F1NPKeQJFGOsKr7/6MJ/cG7rGaVgqCbXk5AHQSn+8iybx+hN+oemkabzcpstWpaPJG2+rp2m/6qsQV4Q/1qQamHIi/UG+Ujs6xuHSQuHgVZg8RBQh0GREiwFTpqsJ+eQFzT4Gy9JSsCgrNHTk5f95pju0Gt7kzI4Z+au8d6mdigcaTCyGgflysPL8Waoik5naIxXSaV4PPcWUfeQo9KuXhovq8og8xvJeLtVfXZhETZeh/VDKc3AgF9FGOAHetx644UbBjRbGA85+kik2kYOKsWzvXCP3wEoxZNZwIT01niULh2ClnmeJ7bBS+UJ8EWS2zOjbkkqUqpVdhg7uIuc+oEVSbLZfO++Xm/cLmQpCa2zFEkyOVG2aRIR9VA+cR8cpH+a8U8SvEQEehsaZ+u3F3Rbnr9fqXj0f7atV2124NGOn+9P1+sjT9f12KVvhfmN7y8sjI6e+Hp9ZcXvZwm6Xt+44HhZZMdUhs+jdNdpDPVqoH4EM8ZKidarJupnf//29np8eP2x3aeHL19efqt3/n/+cR7+9PLDvvT+Pw==);lineShape=1;" vertex="1" parent="1">
                    <mxGeometry x="669.2268924267266" y="42.433855359712766" width="21.335162867313556" height="431.9714043746517" as="geometry"/>
                </mxCell>
                <mxCell id="12" value="" style="shape=stencil(lVrZbhw3EPyafSV4H8+O8x8GLEdCFMuQlevvU8yCo5nqnVroTXG6lmR39T2X9Onn45cfD5fof769vvz+8PfT17fHS/rlEuPT98eH16c3/HVJny/p07eX14ffXl/+/P71+t8/vkzJ+dcfL3/NX/jniguu5wmK/t/rP9Tm8vj/X369yj8/fd/JR1frUX64Uc/ls4tH+ebXL9yUr/z7kC/+XL67EFnet3P54Vrm+xchH8I6fgcISQCSi+UI6K4VAchuNAYkYYIAHQ0G+CwA3WVj5CaUGr2LngFFWG3SqBmAeHRMLlcGVGEHEGlEBvQoANWlwIDRBQBmisYO4RyQ/A07NHGlFF0y1BjC0im5kQz51AnF5ciAKKiRmmErTlAAPDEwwAsuZfhj50d3cUIOLhtAFVrKyQUDaOqE7IrRkhdqzdX5wYAsgkBuJqwOSb6MuHQ8oQXp0yWsoLIBovPC40pifwBAaalkcyUoWlgagGTs4MWjJ4DsEBfhzwDx+IbSpOEA8MdABr0pLkFL5NOwvcqHAOTjlcDfIEIlAOFouFSli5bIQSDqIDABx0cj2lal1uj60XDIGF69wQJwpgiVk3yU1tcdz+xGMSC5rl5Q2c4IIsoZGnMbGU8xFe7ZSV4FPfDYN/59oZ+aV3p9l1cWq5U5gWihfr8v87zLq/e27fh3+SSy84w9xNHl2rflUSRRvSDt1fJ63nafJN0SACp5cCNVhQFQjoyIOvsD0I6US1k6/gQc34zUmPSVmo1FGtAp2sV7V2JAu3sCFSQoRhWRULZRmkqrkLsNKBziG6Kdol5hV+jZVRFPW1vU3wDI1srSg8nX0XUI8nXPhsMJVTy6x1VzbYC6CurbgORaZYBqe3pZ5fgGKJJ8uHEarNauAFsJtbeDUOvwXC4AUETQG4FbAAAUWwdiRGNAEmwd0Ik3AHUCYkQ2AJEYAOjmSirSj8E9wzSl8GkAqI3pukYCYNAbuky2wXvOtrCl6sVwBNULI66EegaoR5cbWcZ7AKhjhS2bAnQO36Nq9vUVSncAFWcGfL4wQNXPAPAbsmwa8Hus1iQnBwBQ8wafkmo1ALj5HUA3wbUogHl0r7K0smqdgUlNfIzhpo8qwxlq3IszhnzwUZUgLL277jKsA8FHo9DSbR9VtYANA/DRoF9NgQbsU6NAG8rgo1llCBMsQa+PhePpo5obHwQULqTvRYG8uvI9QD06ckM5A5NSqzeGq6t7Os3UwwBU8QAX7h/RUrdaarKI69kE17YKx7OKqdKjuxxp9mBOGFJLzdJ7yCs1cIl6Jq+7xFa5UZ8uoroahBXDja5OSKuy3Tm1MjUauU7Rtcr5OwCZyu+wxnFngEBjpbwi+ingaAj0HF11NXGl2V1Xo1L77F6P/C5Rd2am3c13rhS4Scl6vAcADRxSWZuUMwD3r0M3vFtHvwGy3Mw0z61c2JL9GYC6mhAlYA6GPQNUcJ1EKAxQGaVuVeQOoLr8aiw9AWoSZTI1AEXUxqWv6d9+lqYAlZuUkNZk4QxAw5YwJL0n4KjWWOTOy56QvB4Vb7X2fgiqAUQNOJBq5eZg+GiHOTxRb2g8MUIQUKMNAGhGBtvLcXfjpr3eUWvjIDC9XI81qctvTWYgqJVb6iCL6VJMd1m0pZGBBgNUQoHWsxk8qCVZ8bwy7lluQjLKdTphG0/fBhhqdB0EcuFRH9Ta1AnZDB70gDaDmwTwrqkrBZ6rAaCSYhpmxOSlllI3avWyC0qVazgA1KRipkAqHYac3CVT/jS9t0uRV4ntzobW86JiloFqj925loaLVrWLr2YgWmUdGs2MtlWZ2Ocu3jMgqyuZbT8AUah1bj+KAQhLB6uleu+bCPtoRY1QzIcjTV/JLPqm4YRaQ+BVIqghG+rVPe/k1YK2m4XukFGpskO3IUdkt7xN9feJcwnkJe945zXfqxR6wxHUVN3Ml2c3JOVpigN5NVP3vON7b23O5On3g2SclddLRL92tlt5MaRX+hufTSj+eN7hzm98pH7Ih+fWUuQ0f2u3pFyY27yq5x6m4YF8kfI1mvurufgHP6W7L48/3r/b+/b0/Hz97G////k7P/zT9RvB9Pk/);lineShape=1;" vertex="1" parent="1">
                    <mxGeometry x="657.4058101353387" y="81.38254490114275" width="187.98979116418013" height="50.412281529030224" as="geometry"/>
                </mxCell>
                <mxCell id="13" value="" style="shape=stencil(lZvZbhw5DEW/xq+C9uU5k/mPAHEmxmTiwElm+fuhYKhcIqtPI292t26VSJGXi9gP6d33zx++PT5E//3Hy/Ofj/88ffzx+SH99hDj09fPjy9PP+Svh/T+Ib379Pzy+MfL88+vH1////Zhrpx//fX893zCv68470KboOj/e/2gNtdfP/n9df2Xp6/b+lz39cWNfnt9cDXs65Pr4fb66IrX68u4vT65VPT6nG+vz0ZeeUKk9cPs39fb64vreV8fXYP9VzeiXl/97fXNjaTXl3R7fXej6vUdnj9cN/qMoM/gXVMCHCq+BohFDG1BiQCiQCVydRWOICQjQ3cRdBTkkNWWBjpBqNqKWsBTDs3l3Yxadp621LVaW3WFhD52fAA6akk8ue2A7p0HT56uvJ9DDy6AacTDMk+AQm84XPEESKBW8c60e1trLHRxse+A6AbJUF1SfFTRfwTQlT8IIZHQTQtdhZMLAvpuS6Uug78GdO1xxbMMw5XdgXJGUhKAcqAspgGsmiSM7KaRxEMYoHg1JddgSynoQCInU+CkU3R+F1pcqjIg70IL8RAVC6Dvxie0RCKIOyglIQWk7OLu0eLQ9Pyi/VNUAKE5VW0WDUO5HKnfz0y4P9OG2jqhAyD+SlbRF4mezow4TAB5P4LI/i+AYc2IhB6aJeXYB1hF9i7uEVreiRmJcYUcV5JyDQjaUHPDnE2eF3YtFYlWtKWoKUk4LAJx57R4/USrZNsC0OEt4MEJY0UVGg4qvwWou3VLPGyk1qLf0DPGw1yXex0A+QTSDAEo4+t3Dq7pVKmP5YPXgO760IBE5yBphnkDEbeEmtYNgBJoSTOaAYCWSlyWcwaAlkq6ABBxi/WrZOzelupyl7Na6Q1taf0AyMmQlrrOcQUQwOPKMObdlnVdFyYSog2gggw16NxKAJTYSyUSjHkHEFoAw2yJzHvWmskASIa8koqTiw4q34qxpYq8JDyXswZ0sNZ6KPH8Bjq4brLouvR2DRg6z5gAOLjmddE9AXBwwtUXMsA5SFaeDVWSDC3pwD5PmurovEqRM4CELq7+GqCaAqthFJXapVcDgAgkFd7IBgC2NCs8AyDWmBWecSCKoj2ulPYEIKrsaWV4Z5oBB5Iga99AVNnLispnqgS1zqhsuDVTj6XqJpEAKHWQHTezJfI4+bqYgEJUKV/HogFUbMjXw8Rp6uOMsOL+OWSBeY94oSVi75EuPK6CWke+IAFq/Iyic+87vDRsYOde1Gg60RVABCIbNrAXpPsxVj/yBKDcWwBxaAD5wximj8MdOwHoNJQTXQHoNLTd25K21o6lZfBHLXyyb2rZzVfsPjq43TWF2O1bLD6xEKpUFIsPQN8CyF4D0PqG7lNOAAltIooAIm1JiK5ooSm9F0CNWq1U7gqgGCajIugC0PEKYW7JRMV7QhunpjA61WpcLhMLiI8GDaCG2jQNQxvUt5/G1zTgjj90k7g24sqhrx5mxQFCX/so2sZYUfMwJo9dwSnEviexPtrTVNN+coMbRtcAUlPTrVAJY+jUwqVDAzBCFJ2ujzuEb3LjcYfwk6G+skrmWwAVR0UqtO+omy0CyGSuQecCAkD7NhdZg0uObo2Pk4eZgZk3UAN1xjQjdAUt9eP24wSIlFdWXSDLwdHN10xGqgYQ3wvAG1uiKmg20ZS15kVVtyqIYPwh0cFFExXzKnNuVkHKvBOn696Yd1oZzs1KzqQCnQpkUysOvlef1Wg3AAhys941asVq1LIG90NtzS4AStdnVyBqAMWHFnT2PUsEAnjdqJhcSP2fYbg1u0Y9rK6bLZO9qSUlFcQvOdDsMDUNIG6dPayhAZT/VNMPnSRAbzA38gKgm+A5ZOE1gCrqaq4sBIBNr2DUylRZve70TTKmJvDQ/R8J9Z5btFrotsr+W03gqGypo2kUSwIdja8U3Ycbd3rrlr25zCpJt6RmUkcyREPGAzOyEkzYHWgaxes7/7c88xKQhx5DOKWy14hurI+LmtwM9Q3sheRqmKxjxygX3WIS+6byNWc96XCHXHPSRfsImFbOW0Lb3yQZop6mklhPnbt8DFstgERiut4VgCrMJIpRFZSDmV7qfOkXdLtSuA0BXrdnCt90JtNtEYsn4xOAapOJsRBtJDNx8nZpfQugrkZTxoQpNV0PzGEKML50jO0cgLzai7cAad9SDHgOyZRZIfO4g2lXBo/9HwGoC7OQkY1T0vXAHAkhtaaVKRyAivXAHILZaWZKBeQ6x2x200gdg1wy98E58qiQ4XvhwjuzRW3XkvhDpBlVM2s3AytPYOkBw4jJdzxY6ABUbOdE40CSmTYeO1PzUUJk1Daek6pqdI6rVwHolpRnGYq5IEgrTF4Dsrkw49GZeBWBcOYx6QGj2S8iLdnaMuBsgZCKTjY825I3owID43QY5i61IfOFbu6OCs+eVnMvn3jg9kjmDwD31kM2cXpwvz/pOfVZMdOWoi4V57wQjfQGTfeNyywhd/2GhJmuuadpEVONbp4fuTrW/tki3viZyYUW8Uqx6NuKuR9KZHT/oPFVQtL11dvUwLXn6ORw7p98WUfbqR/qX2vHbAFvss3duthDIJvWFN94BNabkbmMbV+vnbJxd8UUxHM97udiBh706fU4q8hLU8hel55ztht/yuKN/ZA9m6bebC+BP5rbjOaRs8zzJYRTi9vrzqpUFjSg9es/9bm3Xv54+13Rp6cvX15/lnT+Xv8OST56/Q1Tev8/);lineShape=1;" vertex="1" parent="1">
                    <mxGeometry x="407.7771770273105" y="234.25666785421276" width="341.94651959083535" height="57.80178632222567" as="geometry"/>
                </mxCell>
                <mxCell id="15" value="" style="shape=stencil(lVrZchw3DPyafWWRBC88O85/uMpypIpiuWTl+vuA2XB2pjHbjt7kMXtJkI0bF/nw/fHTt4dLjt/fXl9+ffjz6fPb40V+uuT89PXx4fXpzf66yMeLfPjy8vrwy+vL718/X//97dNcOf/67eWP+Qt/XXEppD5BOf59/dA0FPn3y8/X9c9PX3frc2jxsL5LKPX+egk1HdfXUOP99SW043l6p79fQ2vH9SMI+f0WesH1nfx+D5pxvab76zVEOI99KffXpxhiR0BqBJBCFrcDA+RQnMj/CXUOsDcTByCcSCWM6mQgl5raiQyFHclI4K61sR3GYs0O0DsBqLslAxAi5RiKe7hKdjBV84BCHs50rTqAMIA45dSQBwF4bbOHUwIwdcsOQNTB9E3gHSoXuoU6joAYhCiQAYYeLVil+mAqnY9CV6M3E7ovi7UBTEP4Du14pGJ0ZO8wQgRADoNd60CzJ2ao2C3ZMx3pLRIyk0FRBrvoTG5JIu5gGtI5oB+pYXZEicZJQhVVaoolBzlSaaP7+XpZ2rUdiFJVnPaYLSevLDX0jOuZvOarBNYXJm8Po8P5E+GEGCeOvM7UCJe4CHC7T3b+koIc5a30/o3zCVSfKkERPI/5RmEblPU+O8Zl4tgMALbFPBdzncWeGHZQDmjIocz1sjhjZHrJNN9MTz6qmSmeEpqWLcDZAIXvoMjTwk12jU4xKw/yIh7JvlQiQ00riN0ANQzyDjVjRNLichPnAMG4rRWqnQbQo9BtUOdcywpYNnUwfSZsNRExthVK79pc8GyEZ0cy8oE35+Qzz1pcoFfZO7gwbMQVXJ7H8xH1YSRKjZbWAXaAQV665TMAUdEmy9lvgM2ynQMKxjwGGCyJqRgZTgC7pbYClv8L2EzvBhAa6DWX+BiAcak7IzAKFdrYP+AduE5P9sMttWWezwFl5RQboNOYx9ifHKAxgP23IEAJ+WbmBTJYrEiEHi4MmwDycEbm1PBIg8hgzMkRAUzjjAjiAJHtsFnS3cMxq2FEADNjXyqxS5MIcKRCbevtmXYKxNLDYcFVRgAzAhqd0InmYmr64DJWpkCaMT40drEAS02DwXp3avm0rERq5x9YyKcVneJMD9ktdcyUTGlZPUnHSkJ2AEY+VReFFhoWq6J/mDKwa1V3JO5FDaCuyMVcVopbZrFzoyzoU8U6l2ltJA5iCgGAQs+kW4Vnp9SZ74AepfMjDYylDZDYkYYzTEZX9nId6XqzPPcAEJLZtbJyowGaswKdccMBZmWMy9CdUjemQc70Gb9pCXRgXmYa1DnAx6HMGk9qVARkrkHFlaGZV5z0BkBb8cpdBQLAWH7yHTrKUg5vBkb+0ZmG83LCpa7Oj7IwUbdy4U6DqIcY7kgWYnFuvBPgPMSMydgttcW1XcRUmdDV7cBLxeZHweCbs2dVAfPUkPqZs2dhoia0M7Yn5Xd0RxK6g4kItWUtlBrzEo/XaveWWRDXQ1EEMC4Z1QR26LTXYmSGhMDYFZnQBe2MAZQdKaMV0C2hvRd994YAKnREJ7czJOcphGKyeDMk93IOqNtNABHCTCNEosqrXmZ8xV0T7cIJWoFpqtiR8qqt7ABMISwdRRkGtZVNsSV186zngLHs1g7APITl4Bl2sDiRZ/kxOwA7kmvcTQA7kixy7gAsM2sZw8Sp1Kzaks4A5KVbRE9tAGaNq2LfwQCsTl6HUyAenswyGciQQ2FHaq7woPQdZjXTecXGZCgOUGnuVwVvaabxTGiXXY5IiyfV56+NevYasQDUE42+DRCP1Ghc44pit7LxPlwZKLSRhWX5sxF4VCC7aCE6XTq2IOZPsGp8x5pUEdrGKg29ovDCdKnod0VoIa6UZas3QKT0thO3o/WeHVLWqMnoRnPlgIRWIycafJeItZBkZoG1N11XJDXqssRlQanSpEY6FnVnO4vN4jQMyZIsa3sOqK4jKlTjpKACzR0YQLCjkHgCIRmthj0cM/ezC+wb2UzohEm+faEPlzAFt4tuTOiEWdOkI+scRwy+p5YzoSMWdc3asnfIW4S3ATp1WXM+ANpZmT6cAQQaZp0GiXOUCqZZCg3v80CXNQuibLBjLBF3+TGd+emuwqS09D3Hzd6VyPkBmxk6EJ32IzwGYE1wPySkmQ8JuTEkzdSL+kEnAzC2+lGqeUvk4fywlvKWXHIvrdxqpI7dKeXDIGa2QOMMwCIBs9UwKjCLAmxS0LUVZxJPFGgO/gkCmMuao4UZAbS8iZVBW8/m/nwzS5ffPk/K0OfaejZY0JZ4u0oO7fqje5utLxZbuUpRo/Lm1QHdx9DsAVa2tiv+smZfdFORnXZPIta7O0/3nBfpjSY+0Q2/VtrCcvH5rPsSPriKaRfay4nLX2zrM40KI/bsLMFgo4QRR2t6pAMXrsXXlCpkRD7betbQiGhSmtLSUHQjKUrv873D4j9eb3/cJtO/PD0/Xwfb9/+Pk+z26ToFLx//AQ==);lineShape=1;" vertex="1" parent="1">
                    <mxGeometry x="104.834990315906" y="356.7343330354014" width="265.5955836900755" height="48.68998024697771" as="geometry"/>
                </mxCell>
                <mxCell id="16" value="" style="shape=stencil(lVrZchw3DPwavaJ4gNez4/yHqyxHqiiSS5Zz/H2a2eJ4Ae604rfVir0kgQbQwMxd/vDt4dPX+7sUvr29vvx+/9fj57eHu/zLXUqPzw/3r49v+HSXP97lD19eXu9/e335/vz58vfXT3Pl/PTHy5/zF/6+4GIIEsKEpfDP5asgLf73xa8XwNPj8xVgdNFm1idpmawvUodZXyQHsj5Lt+dpEhNZH0XVrB90fR8SolkfoyRy4V6l2g1ilsR2UOndAlQG2yFLs1eOVdKggOyO1KQzQJVinRZhJeKF3qVV6+UgqRA3BH+kBMcwXkQJ1kqTSJ0eaTiASmSXThKyBdTFlZuAViW4OzQZ7RxQu1TLJZCvkjvUID0ZQI70SAVUs0fKWSI5koI51nFZpREraZBozZrr2vMmAL9XrVlzk0I8nYOotVLuFIAMUZyVxqLjbUCSUQwAt3oHkBwgSXxnB5vFNEslAQRuNnsHLaIkgMDNaB0HVxZ2pC7BxrQ2monhh2LTjCKkmKeRZiw1CsjCdkCqtGYtkWYNPX7vACTJjN6H1Q9AFiV+0LFscgAKvUPRZfUDUClbC5KA9XRpNOIqyOfM2qWTHWrzeakMWlBaWuVjAeqRbc8ynwvReUjih9Z9PFSQhdW46O9QddHxLHtn6+laF+HPdsjuDn2V+rM7dOvpOlblvg1AXrI7tLii/DYAmc9So/GsUYtPxtgzMWpsBaUdcuU2W5tk67jGaxzCpduYboMHENxkj9QDLSg4UrJmhSuVOA6XdiEKsnQGqD7NQKMxEdqOLHQAClXFk0vWSr0t9XEmEp3shr5hhR261ZUsfMPqA4S0q6KQXEzzQam7dD/SEhO3AXWd+ABgTyYSiwzruKFUt85/WyvNPdkO0EsO0LhZ68qkB2AsM5w5Lm6AymQolHH1gMHIhwCynr5q0m4jopdkcwsmXNvy0xWARpB69gFQSFCjfjh5DwBT66hQTrii06RlNEpvHsCkACpU33YI7A7Nt4ogUyPsQ753VRGAwitK3gGsoox1gCsAqyhoFet2h84AW6sIK73TKrq6+2NEcAaomx86A7TtSIMmJiRrn5jAVhaj0XfgMx6Yp9uWXMdqT28D8o14GIzesIluR2IxXXyrOBMTD1Hvh0E1HCIub9QYTJ1EL5gG7/wQoi71TfIRP/w8oPo5BSpK4z1+cY4rtEWBiHTCFVWMarghwfkhr2/O8pJPxpEnY93IF2gAlaNCXYkNVoHKJo0RtIPsoJv4nomHBJBuLfuMcnKkXHxfNsdmxHFzFGOTMdJCZQBUdicrA+2aZgduyTf7KBJxOXkrIfEoMSs6cDe3m2qCkE8R007e66oYZwMm1yrO1Mb6geBzazv2PJt5OSshQliNA/mcwkKEdEbvbSZdK1WJRf3QGyHFWvYSvXBFpmIjXW1bQx0pNVS90kVbxPRSHisLXU0R2OwRXHLyp/RF+DO2NmsltHaR3CH11VRdDWdYm5Wyn3mBLCzNxLHNixIV37GskdjVCItpvph8AIHwhXBp+Km0omAQyVd9dUDqDORA2XMbEcukfVwl/GpQWcnvB89sMJFF5/Z8SRMNzuB7GaQoJfZJi/VXs9/Mpvw+QyIwGEmjLkFxNe9mkRmHvzEiabDRr25PBXgYoI64eXdWXnjaehZzABJ1smbfFs89WQ4OnqaJm3UqBgc4RlNnUx//wKi8J4jdTAaxQZvcvsr9AUh0TFS30S+iKbLnP31V7wMQ1rTsTOo5TRK5YgDAPUaIvN9DbXXxE/mIpaXtAarSB3cQFI58MVNqQLI4ARAjB/StG6NqFTJN/TNmuj5tD0JW8T2bEbmakKiQ7OqjLdDohPJNfr2y9nYrajxF9u2BQ+D33Wgd+KQx+BlaoBIS7U0ffj1/h6Btv8/eaSj7+VmJHc3XcFyI2BM9ad7syX5/ayEDTY1zMuDPz+awP/3Sx/8A4MOPd0y+PD49XV5Ruf6/fycFX13eZ8kf/wU=);lineShape=1;" vertex="1" parent="1">
                    <mxGeometry x="-20.434575763438943" y="158.33511624317248" width="22.102263466225168" height="244.69773469518248" as="geometry"/>
                </mxCell>
                <mxCell id="18" value="" style="shape=stencil(7VrLchw3DPyavaJIYkiCZ8f5D1dZjlRRLJcs5/H3wUThaqYx0xsfcvNN2kUvCRBoPMiLvvt6/+HL3aWkry/PT7/e/fHw8eX+oj9dSnn4fH/3/PDif130/UXffXp6vvvl+enb54+v/3/5sEquf/329Pv6C3++4saQ2lZUSX/9+8kitfzzyc+vgMeHz1uAyRh7QJWUKCAbAiwTQJel7gFNKluhSYcVuhSmQwtbMq5DlVYQ0CoBLGKwwpCFrbBICYDWCEDn1xuAsS2p5LQD5JS41kWWjksoW6JIznjUrRNAlg4r+Cfs5LLosgOYcd9IMvZaW5XMtpSk7nWwLMYOwo24P7nuzjTOATbw5PpCfcMB4BvdtSIR5Dbp+xhtbf7EGUB1D8hSmQ4dzVq7KLGSA8CsVek5OCDtdVj8pBcCaNIAoGIcoPugVjc0M2tF6lOnPqWAujerZinMrBWVLk6GzKyLtL1Zy8JPepG8D6CS+Enr/PpKG10aU1ol7VfIbfLIMaCI7t07u92YDnmSygaQCS85IO0zSvaIY66R5tdXgFIi62NyxAagxEoOKCUAyJacVFpcgRycA4CMHcCU7u5qI6xAzqF7Wu4ISOQcekXWyGUG7RkgdQQw1nAmRUCmAdSLGACSGDu4jEnRAUq21MbBComcQzP01iGd7KgFWhrUMZpi+Ay+n4ykxGufalIU5Av5/VqxMOmUt2tGou/0ADxvACG1WZwdyy+TTN7kF6Lv4sfZQD6TGsaTBpSrleqroebxoorIr+pBqp01/rF8kdLw94m8878VkB9E3xwq1TYd5LigkhHMz9xTLIF4I8WUp8eO4sw407U24kxXDJVG2cfTTEZxErlONKjqQjaTMMV4wUPKmxTdnhU3CVWtsxQ5E68gnkjQuvjeMjxhXxuZa6Elndo9iCcuvjdkoQQb+CDPcvzM7lAJ0BoxYe+aaPS5E1QQ7/SYoBFInAuQWnkuzFhLplmCnwVfQVXJ3jVUeZxXZyXxdqqs+ldswgq1u85O+c3FBqGlay23CQ+6dyiZOaUqZpBO+3hFn7GZIc4MCT25GHFgxWgakikDG1Y3zDIFJwrGk580aK2lE8sUbLeadHKqBf392hD+t19f6DEVrOOUEkeZlPjmwCw3FZxg5ZmXz04Vug065HOfUdgM6xyCRxZagiqymDexXNzA7jd+HU+V84xiXh00PHDYc0Mc0oHRAZpibhqzSzxxgqEoTh34O8ULEgerCTKOqjv194we2SgD/yiufhRXh8UVPab/s7gKQyjfDK3FcL5PSS90NpnuPfRNmSbK0JXlmWjPer4F906CL7aUmRaSsWVNlFRjS5zoCCa23Im2ibGlT7SOiCODxEcYB1GSSYTHkUemjBBHKrzUrnmqt6m1yf7XkRCMtan7VMNM4pmIyLcQK0or3HVkZiDPRtpxJKe0Co0jP16wxJnijUltGFreGNSGqWihlwQHY1dKVQdzXWr/ODj2eOGj7ISNJusxXB66Bn4z2g1H5deUeiw/MMklmqBdPjTKrEyzg0RU2IVIinzIht6WZy204We2n3ARzMt7l+9Y3y/sBkhnsbWJX3bFpNjM3Lj/8a/3mbpSvrVw3W90CGkV88t6r8EMVGdyvgIqvS6yFu6X+AMEB8AKNzhovaCFgUiXzO+M4V2HFho1DoCsp432E2Yzyq/HnGjeMMOWYuGVswOgw1kGzaw2wvBe6dsUBwAV1c5LpxD7rdD7Fgfg64BOo3NkzK49zfxwBoAVnMCZL40Smt7BX/CUyf/XgFPqfEOxK1mdhT+XqRUByl/wQKvhADZgcQBYyfisatTwNMX4W5aGZeAaUsxKDUdKDqBKd+winEfY8G99DZYQQJW2OfPdADKLh4G52cnTmA5jcvUWwFxjIFWuW2IRN7A9sMbfRQ0ceq7kyXUYwVtZo7sCYIXBpykp9PVOJCwFrUvAk7ZMq9QRukAPc/reLJTB4wYLjPBSUPnjroGFv0ctm/N8/3vK2wD/4+355qeHx8fX15/b7/G5p3/0+lRU3/8N);lineShape=1;" vertex="1" parent="1">
                    <mxGeometry x="-394.522985431978" y="236.08141097402768" width="469.74864596473526" height="50.92869839394143" as="geometry"/>
                </mxCell>
                <mxCell id="19" value="" style="shape=stencil(lVjbUlsxDPyavGosyddn2v4HM4SSKQUG6O3vq9OMT45lzmb6FoI2tqTVSvJBb94ebl+OBwlv76/P346/TnfvDwf9dBA5PT0cX0/v9umgnw96c//8evz6+vzj6e7898vtYrl8+v78c/mF32dcrRTLgpLw5/wNU0v/vvhytn88PW3tCzUe7JUSss+kabBPVDOwj/3nun2lJMBeqdTx/kwFA9p4ACdi5EGilEdApRCgyyUOAIupVggI45UsqA35EKmMSZBMFZ2gFMYoaSBGJ6w3XgGW57IPKI1KGAGFBESpVH+lGKg0AMiUxhNiJMYAF9aYqYEolUQqI6DBKBX2xZCENO4DciHWEZBIEED9lVKhDNiapadpBTSqDACZeGTr5Sf2nJbRh+UnUFijL9FcSRCg9ph0QAm9BvfYmkdqFOmZ2S0gB0iQSyZ70QEKKTihCeXR6Wo+gEy33PO6AqxowQkcQpehFZGogZJrzWuxqX8AqV7uNCaiBaj2jf2VmkJuVJkAqWvbLr/HuLYKU20FFtoIaBRBqmOiyB6AWpbGnti1QVxS8yHC5D3LdAQIEyvV4AFJQZiIwxQlkGnusrWxF+DzRL1WYFDFa4ZRC3XpMvm7ivnH989dqDc8QgGyCOkEEACwdqbqAYjasfby3QDQGGDK7oOUsHRHCuKjFBErihclSxuDNBugigc01K8ixYlIGRDDnK5jv1pUCjDDwlqn8iyoPI3JU7GhMcDIx5NioJmY1+FrA8ig2irp5DMDe/ETqAU1AWIEP/hY1gpyYFKLDNUiUWZvj9Qi+fZ8xZ6Lnw1b7K3r4wDNIi+QRTb+ugHAOlvAIs+jzzYSFBAjzb78Kx717AQdfbDmKOgE9k4X3NkWzZumngx4ZMSrI5GKQgnjqThtWoS6HfvMv5kNK2wM2dlHWGrRl1pmSL3119bxuUIi8UqbzUSPpgXjtpuGk8I025XaqF8pUARJWLg99pFl7wFpVvFUXTYrVD3SL7Dd3VD1sF9Yr2yH5oO70pX90zRVRmIsGy4eAPIYpWWHRtWztvvtlo5OiCRurWeKIKzLU8rotNUT9EH7y8X2LQMDXLdlhuukxcQp8dpN9/LmF1woSSZ6rjlrH7P2VFVGCeP+2LI7tYmzV8S75lt5gCtV1M77iz3a8mx6cYUQYPEnm6eSsw+g9nOg7O+DNhFb3dtkD+K/7NXN2aMB0lZ5tzeH3uX29sEp/gW/tbF7nIPxWRZeb48mqf9+Hr1qbx8ub7H3p8fH81Pu9v/+7da+Or/76ue/);lineShape=1;" vertex="1" parent="1">
                    <mxGeometry x="-5.787777568174761" y="40.28424100512257" width="8.482683746857447" height="119.82260591970476" as="geometry"/>
                </mxCell>
                <mxCell id="20" value="" style="shape=stencil(nVrZchw3DPwavbJIgheeHec/XGU5UkWxXLKc4+8DZs3dmcZsr5Q3aZe9Q+JoNMC5kw/fHz59u7/L8fvry/Pv9389fn59uJNf7nJ+/Ppw//L4an/dycc7+fDl+eX+t5fnH18/n/7/9mmunH/98fzn/IW/TzgdYYyJyvGf0ycpxhDjfx/9ekI8PX7dInoobYdQDb0TQA2tOIAQgISWEFAqAaQDQGrXAUND7XvACErOMHqogoCfzzwG1FAHAhIDSOhg1k4PPXJIeQ9ooQ8CiKFHBGSypa4h1j2ghl4IoIeREFCIH3pdkXMGSBByaANk3QFGC00poOz9YGao79pSl1CZldry6wI0+4RZqa0jngExZOI4A0As1cLNaoGw31LpywxXAftYKilkfgZ4gpRQmeMaBl/WIIQEDND2fsiyqOoqYE8zadzaUtsfOgn3Q0c/2BOEsIY9AaLVAI2ZtYYoDsCsdI7N7aHZGdKi3g2gsC1ZukQEJHLopityzgCjBQawrxsCmFktvyqYtQUlKdpqkIiASlijyaoGG4CQothyaA0BP+n5GJDclmoYJFqrrq83AJbTdSDNpBKUPaGFoQgoxEq1uuArITFAcaFRQiSOq2bW+C5ACkkcgFBlUaSZeQaSD8XSxT2BVVGj3ujOkEl4l3OR3fCSEk8Xo15HZCyni2DJMoAwK1m0DgcghxZ1CXQDMFDCGaCRBJIekjMr03xSUfMZgNGMVbToEkiIHyQv/bUFkHyQtErgNuPYoU2auzMUUh/ycLHEn5D7+noDYAUlO/lzg2ZyCd0RGVMCVveTIoBxa06uoJyfeQyIqO4TF1hpuPC+AeguvAtV91Y+soslJkPt6+EcN4iVJkdkNCvdUgrqalxkgIid4iy7hJd0EelmPetoujtyo0TZDmSAkvz0JuWywQLVRfYg5/WiQahizSG7uKYuDt0lDivoycnVusTf4fqI7d7cD8nk6CJOaC8WXTFP9LwRK61pJrp9ENt9NTVXlkN01tWxX1le98zLy1PE5JJF9VdcVfahlmm1TIuSL8uZ2MyhQHe3+sMry6FlrrRDEHSTKSRW9ELcR6WuD9726xY0zPBu8xaUbDvONreoH00/yx0hheRI8yxcrgVOx/WsOrq4nAqZ7MeFfcpUXLqsmmWA+MslrQlsmrTACY1qsojeKrQBf+dyWeXjkieZ8F9FvhfaGPfV6lyWK3HsWFrzsrwxBolrr5vNM4GRcOST6eRtplGB9YkYx8KwQeDQQJgNNiTKirw3SjDLHJaHTuPZeiZTI06HzpR+vD4jryXKC+YegUSn5cpCV/H3O/HXTKSC9me/311rQdXgVHfxHfYRN3i6sd7s6ezPujVx0zw6WhA/m6P3JNJQ7UQ6pLKGFtghUjFoLTYwYVwd8bGYjcgPkfJ+cYUr0vwqgvzA75GKlSn0Fxs5lxYa+oued7hemeqAom5exsk8ukkqnXDUo3wn/Fxl0esmH9l+imvPVld7bdznzsv4ofbVy2z4nNi/KvJJpvHcIs4FMuXblnEAJHRw11y/a4RKymkr2D0JnbfOWx+sp4yfW1+y6KI1GP+0gReEfPTT45Kxl/Wd+Ksn7HYLvRL1Vw831jv+LNS//vKkUPnTO/JDofzfx3r8RUmyfO+K/DaFLQf48QEbsMwn7E88U5jd8ymGROYXIROwz0mrmmwi0xVJzsoOY3VvJeN5JrMMACP+ynnCAFDH6rjlOCDeVulVvEUG+MFyg4beQKliz7zxBNCuw9iAJY/rBQZnl+66gXHj+lSxDx68rx0J83nUpcCOARkJePDxmG0AGGycNcAxoKLjBr/3tq/h9mcM2qQMi9aKANYhquua7CfYeEEFU3S+rELOMN/J2FtJ41JWx4C+8msDYJVBXSekXFqrYmupXHvN93s6AtikVd21nWaqHg0A6kWFjpEMAPJXC5/IRT9+rFSRzEfAZMtKEIsNXTR0BnR6laiuopgvWZM/7ZoQwEbk6thYlY6r5ptZ7m0wVrP+xxtqb0DYH5dX4r48Pj2d3qjbfo+v0NlHp9fv5OO/);lineShape=1;" vertex="1" parent="1">
                    <mxGeometry x="-162.0973298183717" y="76.73148082851378" width="205.30101647263746" height="48.97705223182868" as="geometry"/>
                </mxCell>
                <mxCell id="21" value="" style="shape=stencil(lVnbUhsxDP2avGps+f5M6X8wQyiZUsIEevv7ys14WcnJWXhLNjprXY8kZxduXh/vXvY7dq9vp+P3/e/D/dvjLnzZMR+eH/enw5t82oXbXbh5OJ72307Hn8/35+8vd12yf/px/NXf8OeMK5VC7Ch2f89PHOX2/8HXs/zT4XklXz2xU/JM2QH5RLkq+UA1APlGPij5RL5cl2+eXFbymUqC8kafSgnrk7V/vKNYASBT0wZ4pggsqNF61Ed8gqdSNCBDQGkUkgaI0R4AijWasdEljyAtADGaASAOnyyASAHkXQlUmgbkYdU1QGINqMT4BK/jEBwG8MjkBcBbNlQdhxApZejWqI0OhRwyulHTRgfJXwCo4lZtQ2RiVA/ZnhAjlQgLqOpIx0IeVSiP9y2ARhFQTEs2+ZKH2doKBW1DChRBPbRGTqdGSoOmLgK8cxNCeAmEuk1uShUbUS3PZIfdlKlqq7NQN1IpWdrI8gQBovVrrqMILwOkRjUZS03B3AiW7TvzoBN4onsHiUkAUQdO+LmhBsSWvt9bxjWAsaFF2CCkZTUdB0mWiOLgRjavABkVdbpwQkFMJgURLKChjuIo1AkA0luSuWkbVjV1ESFFnyerG3BTlKKPFlBBIIR8eTICcV8IYxZZARKwWgA8qYSKOiTbFgXAQKXo7XzVyQ2EOlYquqg78wBAKpPRC1VdDvXsVgyQmg/uMypJl6uTl5DRUsI8eQm5VWq0TKkB2Vjm6GwBKDVqsZ16I/lkTEzFAlB6y3hiqG+jgHK0E9NmjUbKPB0BrI5p/PxBopF5x7IrpjIZwfJkNSLLMPWgDTr+PICH2z/YIQRgWvtGDxKAicNGl+uTrS7qjT4a/HjfBzu1AKJp7XgWkOm8mM0PTxss6a8bxMY801dDzcZ9YgIqyUpieEbaGNoIuNg+2qc+pFKzXupzJY50MickHIfl5/VwjAFWJWEe1LPCGDvXAz6qODfet14hAGvwsmGslxSQ3ryYuF6DQBxkga46NfqiBVSSnT7oeuirHALI8mkAETaIYhvKxjaa7JC4se4mYu2ijX06TRt+HldNl7sJOfP+OGbGa/bqxGaGHbdSNvo4PEXbZb1fmoD394DpAPRrGZB0AkjmhAg16ifoZtivlqAJJqs37q6KHSbr0PBahHVZ5jEEXe7lNmCSUaCTS/RNflKFbzfkjql62s8dpFFnPePGcHWZsWw/xqu5TK9WGUg+yd6QOPJAeVGnWXl0i9QHlmDlUaTYlvrmplasexxiBme3IrEX6CMLRbLyDDpYv/mz0UVzgUwyNRt5NHh89o59W14+vF/oPxyens7/B6x/t38AyKPznwfh9h8=);lineShape=1;" vertex="1" parent="1">
                    <mxGeometry x="-5.178634814365978" y="396.3261867146008" width="4.285250470466508" height="234.52843012874757" as="geometry"/>
                </mxCell>
                <mxCell id="22" value="" style="shape=stencil(lVrZchs3EPwavqIADAbHs+P8h6ssR6ookktWrr/PIBRW3J5l03qjyOldYI6eSyf59OP+y/e7U44/Xl+ef7/7++Hr6/1Jfjnl/PB0f/fy8GqfTvL5JJ++Pb/c/fby/OfT1/Pf379Myfnpj+e/5hP+OeNSkD5BOf57/kLCKP9/8etZ/PHh6UI8B60g3sZ18RI0g3jR6+I1aALxlK6L91D2T8+hE/EUgySQf7vNsXwOMYK8NCK/6eJdPrHna9AO8m8vPJZveN8UuhD5EWID+Ua0bz8nwecT49pxh6B+yH3NGxrqv5L7mjsIPv/NnY7lWxgK8oWdf4RaUZ74vqSg7r7EH0RCRv8UYi/RkNDfMtGntJDQ3zI7Tw8Dz5OIPktE/0yhdCJvj9vLx9CIPktBf4vrQsfyGnpFeXb+FmpGeeJvZQRB+UjOo2n9fCFP7qtGTxHlyXnUxUsMmfiPVmRbsxd7fg9pzw/GP8S+Oha9XsgT/dSEySJT/VdLDhhfVF7Rf4xPiP5rxfOX5eDH8n3R2ZJvlB+q6afs9W8ESgi3RQzIVEMmGm3ZRXyiIdAkCFCihkZ02spymS0Fcydtujh2A5RVUhwDamh7q4nxMKGt1oLu72BEQN/QMG4sUhsh0gnY20Hb0tsxoIe4B9S8cs81QN1ryZxL2aUHxkLjhVmPmMzmO8mRel6l2ALYI1hx1suqZi4BxA5dke8mgNihO8KeAMJ43WnpXQ2HgJHcHXiIDuNsOBKvSYcreQ3A7DA6VgmmaHokS+OgVqXuPcbS+gZotHAZjsimogkvpRixVDZND6amgdQ3OG0YoO6DetRQiW8YIAGgU2eaP+/VNN9JqG+0Vd5s9B05WRoipg+9omIKmqckNDBcjTTVxAHArtMQxNYGKPuqYZqa6VWXnS68SfmlwZmmvzLfqFhozIhgDt5CBge/EXPWWnQENObfjvDtSDdiLgOg3opq8L7eabk9Q84ZjtVvBwChScsfyWw/SHliAAHaaIvcflKt73r7ScPNW3FLZ0VAZ3f4MEBX134R04OptWCGmACetKQggHWeIy67XtiBTl46ZuoZ5Sy1V5wVTACrZxSHNRNA1NoF65kJIL40M39EAOMlq8kqqFXoQGWWieCtiarVamMsgDamulZ9K1ClNV0MUPDS9k7hDQE0Wc3uwN4gWADVG2oVbGqsMWWZfQL2dK83+qyMc8VSV4QcA9JKshuA5zjr5GQfQNJ4bzlWK78BhA4LrV/A1q/TCqs21x2X1eZca6eB7nOkXVDdCoWt/mk0HqxJah0BbGJYI7LGDYCOENUB2EyjYYN86w1brX3Rs9M3iGvylQaQZjeGVToH0ejuoGvyezzo6q5w1dXQHgNq6N0BiPOVgqPYZN+w2Z4cXJqlLAtISLtmh0TsIANrPgOwtOvHq+YamdjBz29vAdyA2ADMNfwE2gCshPMj7gkgavUz9KklotZcsaWZALZBKmtIfQFga4w59RcE0D1DXNngwpfYlupgUaI0ix5sYpRONvyqZ7o32/W4XVLapp3HALesmhFHYtpvwwzA+ge3bTN5Nv5xyzyTZwHqBiemg/6RVaTJszrDbTqT0PSWXCqxcCWcFx2p8nVkxHGDySfCR9HxV1r7iivyEe67WfyaPJTDN66LTTpdHrjTcFpxl1XK1U6XSsfizlTck50nFHrVD67Ub4rbh/ft/beHx8fz8v/yd9z221fn/xSQz/8B);lineShape=1;" vertex="1" parent="1">
                    <mxGeometry x="-90.14736795162639" y="355.52518852410856" width="155.29476005586503" height="45.97227683502888" as="geometry"/>
                </mxCell>
                <mxCell id="23" value="" style="shape=stencil(lVnbcls3DPwavWJ4vzyn6X9kJk6tqWtnHKdt/j7LanhCAtKqfpNlrkiAwGIBnuKHb4+fvj6cgvv29vry58M/589vj6f42ymE8/Pjw+v5DZ9O8eMpfvjy8vrwx+vL9+fPl7+/fhorx6e/Xv4ev/DvBecl9AEK7sflCyfO/ffF75flT+fnZXmQFtXyUG4vz1LctjzQX6/i87Y8iau3lzep+9mLZHIY7yTvh+9SM1kfJIZtvY8SIgEk8WUH1One64As3e/+cdIZoGoT4KLkyX3hftoO6BLZBcPougEiviFGhyhtv4UYpScCyFKrBtAdqqSkj1QZoIvrGuBJIEUnRR3JSyGh9MsnB8BNN1wHwCdO30NjR8qSFaBJbwRQxXkNYKERmxQFqFJJaCQ3I2cBeOKl5DVbIENZeKeogw+ARmIppemTBVAZoFw5UgoEgFjacxoZ14iXsjNujZKJ0TlMEw+Apzedk8SuAYxWc9E2eAQfYb5cpe9e8gfXXgd0TQJgqkpCo3jN3YPaSLSWqEkAgERsKFnnNACR7YBgbhrAiltp08QVQI5U3Qy19Ugk+CpoyxsACY0KMjYA5qWa579XADG6GpoZAOLW2iSbi4tkh+ZmVV7dSnK6hen1BeBJtLY4M3gFELc2eMkAAsm4Bp4zoUGPBJoxoeFIjesQM8roQtm7h6mlFgAL7x7n7x0AVG4SrR1e6hrgSfD1Jk7ZkCjzAaBzGo5mR+pTsB1UGWY43gJYJUC91DVVpkCLoneHwp4IELojsYEt2h5M4LbGrVYpV8skklsAdREjRfhFpN1NrVEm61XXXQA60T8AhD0hkISsovSiw7UeOXULoOR96ZT6etFsnBHAzEsGAPnBGhp7pJh4Uhujoa49i2/jVlT2xHYwFzeSmkWrCQ0AmNjoVmE52jXZ8IbSpW41CQTty0rQtRx1/KoNDZTAo88QDYp95zmqqKyhR2EVwpBl4/LE0jGq0p2rfifAVIhR95jRpgaBNpiesVUORlO3mjrauACylRoAT+7BaoHxDRtrGLVxD2D0TON9llVM93YwmmwAiNFW9QHQmEw0uhIANp2xynUA2A5GGw8ASVGrvgeAuNXq+2E061FMBzHc+q4e5R7AdEH3jhSvuZUB/NQi6w6kBBU3he2acawbParswhqsIUC/q4pc52M1CDAVreCRTPIBPXtXO0QqRFE+VL/buZhOh4kHgLevkBZ9v7hRJxnAzE6Wsvc/xzOj7DGAGQB1PnKNfcrO1QiyAwq5ml+jKDHlGssc7C0A1srFPEeHy0UUNleLs34cAD6XRoehjc50h2C9lKajrwOantwBEIiXxiRdBVOUwgBZCyZkEOP7YDIISU2N9uJVkcu0aYewLXtooCGIbN4PebTzPWpMYzIR17TbMEoGiSUfTSfXqNjwkDM7CxQ+ffSQznu0gp8zMbrN0Fx6GjpW0zo3Z1p1UaXV+kiFdNAVcQxg2S1rqk+V8qrTYTcmwoTpnZT9AkCbLBGcns2CA1mmuUk+R2ty7zyqWQJ7sA7RNDK4QeZPZ14RHH2ccfqpxaNj5faqska7eqfVSKZU6kw7TIf7hyqYy48Xwlux9p630rvL8eHXs+yX89PT5VV3/b9+xsVXlyfg+PEn);lineShape=1;" vertex="1" parent="1">
                    <mxGeometry x="-83.10560973944962" y="598.8860643233943" width="167.96784867269093" height="8.858845149236686" as="geometry"/>
                </mxCell>
                <mxCell id="24" value="" style="shape=stencil(lVnZchw3DPyafUXxPp4d5z9cZTnaiiK5ZOX6+zRrw9GwZ7fXepNm2UMSaAANzCl++vH45fvDKbgfb68vvz/8ff769niKv5xCOD8/Prye3/DXKX4+xU/fXl4ffnt9+fP56+X/71/GyvHXHy9/jTf8c8F558y5AQvu3/8fWbg8+PUCeDo/7wA9W0/L+mi1ivXRUljWZ8vx9vrWreZlfbWk1idLflnfLbfb62uxGtf7BnPlNqA0S30FJMteAJz1tgKwp9ghJ/O0Q7MmfJCaxboAgrOSBCBaJkCwKKwUD14IyVwWgGphvTT8XITfYpk/b4BmQVgJgLoSCZ5WzMOR/Hqk6C2rHaq11Q8x6jvATatZY552u+4HBBsFT52vuA7w000boFtXO4TJzQnAkyDYCmqU1dMJ9A4CkKyvfkjFmtohczyAv13RewuXLWU4q4relbmUgyXhaRwg0w6gt4gHHIB3KNNu1wHBysql3GReyoc8Vrw5YVYAiBolzCi/Dohs1oJXdHmHuJaGUiQ1YCW3UqP0SfhbjqMjVW9VHAlcouxdkxXlaZB5jbiKeiL8gHggejdnQceDW+/Qgs7eaR5gA2TzKqazRTpSnZ65FUCJjtTNKytVLtIdEaes1Kyu1ECdV2U9gQhrqoSQaMqsff68AZqMuLTVzA3QZUzDrK0xIN1JxpUBsgId2Np19h7aZd1hp8+uI+KMyP0WAgBpETwDijAT1M4REEVQe2+dbt3mk1uAcnB1VneIFjoDnHDEEGAEQOYRyRUimD2HEFGeq4c7IEbFDpAWzO87gM4V5c6RkGeKP1xahVyb8bI3q4qgzpLsjuMAiIUBXRcIt6qTQT516cgl6A69IcA4kyGAlB/8lNo/HaOZE/6dNOCR+woDVKLx+UpmUgIIPc/xSMrViNFMZmqy5fg4IMy8tasQSvXh0o5iNOq0USYTdlVOVWpfZ0eyq6OqOQaAsvGo1CLkACir44YWUI6r3HIMtaF3ID8MPSP4DYBfAUMx6eRKynVoMpXvs2Vq8b1sm1CCyEpoyvuHalYpOh7S1Hh7bXwHQGI6yObSb1p7r++F1AWA6I0O4k6hptSXt1nHTcDqhzGJUIDInVwOchQyAKsfstaVABC9R6+oyHfI9xC/XcWD56lA0mztzAw01FGsR86gGzjdWrLkQ0XqgheRpQxUZhPEC4eRQ5QqwHHDNAqe8PFhfjjGMiJtO269Q5vjrxv3LfT+LFNqZX+NN+i642kQ5aUAgIImyuFOXpwoJO5yhwhXVw7cUiLHBj2uO84o1bhujFjW0B8iXLA6R/M8ZlVeQ66innUrK9eHpoFTfJbTQORzUpJRjldK5/M7GWWlc+bSIyhUMKppTmqRisxYaL1q6WuZafB9vRfnQZFPkdarSUxLHAVa00LXNL6vEzHQD4NMNx1yfX1iJeUkH9DaOLaPao56Y7XpZHF976p3/FGl8qPfVX4CgD/eP+N8Oz89Xb4C7X/nzz54dPlkFD//Bw==);lineShape=1;" vertex="1" parent="1">
                    <mxGeometry x="150.8074600076518" y="525.131138731957" width="12.05400145857493" height="170.53523335855448" as="geometry"/>
                </mxCell>
                <mxCell id="25" value="" style="shape=stencil(7VrJct02EPyad0UBGKxnx/kPV1mOXkWRXLKS2H+fQV6BJnrEZlTx0TctaGKWnpW8yLsv9x8+312i//Ly/PT73d/Xjy/3F/nlEuP18f7u+fqiP13k/UXefXp6vvvt+enPx4+33z9/GCfHT388/TWe8PWGC66mAYr+2+0PLbhW//3Lr7fzD9fH3XlxKeP5mo/PZ1crns/h+Hx1zeN58cfnu2sRzwfy/BCdBAMoBJCdNzcwDUJ1HQDRBWLS6F8BdCEAcbWtAHG5EUBxqayA5EIkgOZ6QEAiSkuYKu4Ahdwg4kJDQCVKS3aSzQ2JAJLLoHSfZDwSqRkdGJcUEFey1uqEKR1dBUCYdDwCSF8AJc8APASsVsrNRWbW6JKsgE3II0Beb0iFxoMCympW6a4Ttg4rrdRQQ/dOAW1lq6aRxJWGGyKP6cHWNURDcp2RT/PkekN3np/PKzOKa0wDPb8SI7vAn99WN+sDWCwkpLbmMOYCjcVVX00IjEXZxZVF3gnJwnq+FTjv2fML2l/Ps7ipzuN5SojqioC+wp7f8PkaRsy/zaWVcBoCzD5tZtvvfGAVYZxf5akunpyHAFACMcKpAmvUh8493JARo3dgItVpkc1E2oqc+GztdTQR0exbUYeUZ9gdAiD7xjORoDBruj4TafVbSbNjOgK0VSQtOZEB2gzcXVFjqSt5bMFqcZF4OpncOAAkGWmBiQEBrM6mhtl0AEi45YBN3gAQHbJg/A8AoUYuWJgVkIgOSoRurJSIH4qyvyCgkJykzAG2Dk8TpYvWpIaAxABtFskdoBGRBjdBpEbzahVs8hTQiJVqngG5ATrtO1XiulbapoQnntZ/B+g7tSkj9G6mK9R2vhFqtGSGpES7hVaxfWmZ9s7aKUMAteI8UbqHWc52ABaiXbCgnwGUah0BLGt0LSgGUIiVurZoMPTU2boeATIMDJ1WUQXAWNX5dBv81uZsCKGNiV4BjV7Ps9QfARLIVGnroHaFgBiGY57T3kcQwGJUBYgRAaz76Vtm3AFYyKlNIFeqkGwgVkBcXd0LTUwKADL1NHPbfwVEblYjkrKvcwAo3VRpJpIxq0ZQZ+QzjhtBzQCGGgpgk5sln8YoazYsvVXpwjKZDSDvyhtjNNJFwytpQKfJNyUadQ2biG0qU8MxJWyy1EewCmHT8c4OPwoh2LsOyzGhAk5Nw5uEHSNfmxsKAxTs+0amYaU3zeZ57wkSEmOfCr6uVCRteDqIVFxgHU0xCTzRfqMm7JnUM6yzrHHOhruIYFNK9cYPcfb8r3eW1SgdaHEvGXsmBdAbxESEp1YqHvdcCkikkGqHH4IBkBtyxmlxANjyXfNQfJNIHreyne9BUsX3BwNA/KATtFgA0SFFE3GebpZ1Hg3GcewVxRiRQaRAa4pkbHZH4mGrCsEFpRYhumSVOYjtZojKRIrYTo/hj29lIURHDPKtLDjubPPw2ir6bNkNy5BIW1e7HU+FNpZWaSWL8BtwbXqytzOvNeLpexCBRWJziVMDFvYh0rz0Q1bLLHx+rpZ/rpb/52oZsimt5GNRvAZxKHyjWZGg420Pixiz8lEVMr+hrpQbpGU6bC3dLhHRdXrFoEwbrQ4B4DXhRc2soounA+sArDeUQjsqW2e1T6Q6NLMzrfyVQMMF5XhtzTzd5/pl1yvQZFfxHXHna6vx2hrYXXkVlLlo2wHoqz0/Z8edSGzoidsAvAMwesdtntgBPPuiQdBxPdOiNlIi+CHRoSfUmUN3Iwkr/SGZRlUo+bSqYiscaYiaL1HGCEOYYb50Gfse9o7CzIWB133c7o8dLVPYGCjQ5X6YvN/vMok83kxsni6T/JR2d54lMI+hrMM9eyPj8T2X9uRsZ2i2PGPzRPhgz/MVupUn0bps9RW6HDH21PMsiI2/dARhudTwQc979p3UG788Oz+vP3z/zO3T9eHh9pXc/v/4WZz+6fZJnbz/Bw==);lineShape=1;" vertex="1" parent="1">
                    <mxGeometry x="114.29230578422903" y="560.3258416664664" width="126.64515401612243" height="46.35593542871425" as="geometry"/>
                </mxCell>
                <mxCell id="26" value="" style="shape=stencil(nVnZchs3EPwavk4BGByDZ8f5D1dZjlRRJJcsJ/HfuzcMVsSA24zyRi7RxJw9x570w7f7T1/vTil8e315/v3ur4fPr/cn/eWU0sPT/d3Lwys+nfTjST98eX65++3l+fvT5/P3r5+2k9unP57/3P7h7zOumBTbUCn8OD+Jkss/D349n398eLo8H8XqdF6l1ePzuUnu0/kiLZPzKhan801aIueDpFmeLkbOa1v0TRIDAVRRB8hSOgGYqM6AJoGYFCr/K8AO6JKJSLlLn20EpzGR4ORUZoBK1WNAbaIOUKTEY0CrYrMO8FsifrAyJN4BJo2I1Jv0GaBRlCgdQ5Awy6RZInFEh1FmrREtSoLbIPLsCO2SiEymkmaRMtKN2bWJtRkAIRlApbgbkHBE6bZYCSnbGo2NOGcc4rERpWuR4CggSjUCyBLmG4pKJqQBQJytVHAn06EOv+4A44AucU7qGiUQkRp40gEy5Rk4zikNu7GEAKDnGQCuJSnXwFuzlTatiNIAuJSDVozJWvG00ZJ04mnQRphFwp3GAX0268Y8zEptlIMdYBxgnu8tSGeOM1/hLA27HQHKbCXLtwB1VtqgNAeYu8EGtR0CZit11FUWGtBhDr6uPLzNc2tHijJPg0lnpbtRMoane/MAaqUs6pTuI36vkwB0aB7AmhNwRI0e0AlrgOfMNRtvVex6L1Almb+CaY0KVRetWUXR7Cs1AIkBoq+Kfa+TR4DUPSCS2FD1OYruoJJwRR1vxQMSYYG8kGuvo+k66os1egBrdEv3VfEGADUr1/eIBO71KceVRgaF+B6ztlUH7riNBaoHsNBARWlLeLPgQzvTsgew8N6ajSWpWQIV+GEG3MxRuyITowE0hXVJOUY0GFLCcgOjMk1jwrgkS5ZycbTO/5GO/w+guNgoYxY80sHHRqZNHJjM+yFyYqoSXWnndXQbFucbUKlZ87AB5pTDYMRiSZeOCTNFYKFRJK/9DPN0HhPJRcfEohVsHJaejAKiZ+Ot02QiBalztG7dMrkh9eUGhCOxEoZPN1KjN04kWgFwUxC678JuaH7kQH/PMg4Td3L9PQKehAZm+jz7ATWG0XdKwyY7oA7iuQ6Ivq/c5iySD7hB3WCG0s11sGVWzMwP1beJmEYLKXIIjXXeZTeAZlxOY6JWFq1gDQfQwSNHOyxXUfCE1ofiC7Xa2L8cbYzy7GkIyYIPgRBn1gAtBNb/NL9iQpazoQZFsc8iwTOMW1EUo9t62Wg/jhznUnQLFpYPOhZKOyBTQNxHmB2Q6FBjPjJipz1fGouVi1ViIn5edjnbrpIkQ/Dzeoy0XKXx69uylW0Fq59m2qCD6+aMPkrLWKVeP1/9jkXHMHTkXzf68EoI7/fqzlMCXnIg0F06yprbFIdB+UeVOfj/p6tr82uxQHM4Jz9h3Jw9q/nzhElL8AuoQKcF1ApXlAONH5CW233ufcPhWtyfN/b/S5MQB8McnX/fu5Wb5/Hh7UXOl4fHx/N7oMvf/YsfPDq/NNKPPwE=);lineShape=1;" vertex="1" parent="1">
                    <mxGeometry x="-6.375653705021023" y="626.6076853860684" width="10.646759774946531" height="155.87042202054204" as="geometry"/>
                </mxCell>
                <mxCell id="27" value="" style="shape=stencil(lVnZchw3DPyafUWRBM9nx/kPV1mOVFEkl6xcf5+ebHG8AHd6tW+rEXoI4mgcc9JPPx6/fH84pfDj/e3194e/n76+P570l1NKTy+PD29P7/h10s8n/fTt9e3ht7fXP1++nv/+/mWT3H798frX9oZ/zriWZOiGSuHf85Mgrf7/4Nez/PPTy4V87RKtvEpg8lVyNPJZWibyWWo28lVqIPI4fhj5LnUQ+SjDyscogSmUpCULUK5RmQbZAVUSN2l3gC6DnNBUmrVpipI7AQwJ1mnw2iCAnqV0C6iixKx9TK/uAPiBXHpkifYEDdIjATQJxQLgGaLSGNOvOwC3ImYFoFuzaqWhEUOQECyiSU70iOIAfYbX0a1dbOignhtF1J6Qo0RmpiDRxndWSYW4GidYu+b9yXUA/GQ9lyvN0R4k2djIXRJLiO5JIMOXRKVWJdo7lEjDFSnnaKMgCZlK0Xu6FBmNsMCYVt8BXbISAELNAmqQwZgMKewAKsqIqUi1fsATdukNYDMISjImg0qOmGAGeocmyZ4AQzcSrSDXbD0NVypzHHK6WQBog8VSkmrNiuhijgOgOACU5CoVm6IgdOqHOqN/L4pREqEZFDlnJSQto5nSfHijZAwSSwWXto7rbfr+KgApHy3zocZEcumc/R1GnLRwHZAmMe6ARFkDTKo2H1DFWALlhQRAz6z7gUqudxh19mdHANedjMHNGn1lB4CxNwqUqgdUEkuK/IoewMyamicBABhVokV1oXFRia9XavVd6HYEy9HFccg4opJeuUIh7w+Sh5dPxEbBd90DLSJxwtLlQp45rUjvXp5FNppmXQ6IxEARhaB4QGBOzr7zuQHQOEn0gyqhuxsLgKbzPhp90KrIzrqccCOd0xKnLC7QDda7Ak+LxOIBLLLTmJXjg6mTUEtsAb2ZnWUxEyeAcYWSOjPrnRQWZ6H5IEcuY8ANEr5ffrjsROiSWWmtIrxvW9kxzw78gC08O6IMEf37UhECbRbALskN9Z22I+B3t8XodTLadUD1TRv6l85iFBFgo7rz8TOtDU+YpHwdgF7YernxVE7L3gB9ZCInYGB2qdz27cxRKXekvfXCxHGYsJuNjLZ3A0d05Phr6+fZCYuVbkwMABS3UOIzyQZYph42rgIQ75qrdOG7bXJjLVXx5X+bDZlZ86wal9Mns5LOAftivmUDse4ZfzlBM7OmSekXMzrrhXXZEGEkYKtG+MGFd6504YNq63I6K7USNHb5sDXs5AS4yW1jdNAtV41+/Yn+u7ItQPabDG1zSjmaDf0CFylFgg/p4lXKlJcA6Nas8H1nM3r1+aCB1reqvsCBCxsrWN2PemDbwvrhNDN4B2Q+fS4FBV1EYdNnnEvhy60vpxm/iK6zrznKaVfWt801A0S/2dt24wwQfGj0+eDogOaodRbJIwpwVJz5+7sf0NNM2MNx20ZqoO+HfPcfS9jefV1JBOoxBJHbQAe6u922nMHJs40HOD15fZh/S10/DjG6QxlzSQB5lscLxQc64oFZ1OsT2QJzTBr5Kc/62q338PFwY5PXhpNnOX/vx7bb8vjx88vet6fn5/OHwcv/+y+BeHT+iqif/wM=);lineShape=1;" vertex="1" parent="1">
                    <mxGeometry x="-164.06289327596028" y="520.0030069467891" width="9.674585331550361" height="212.65155158161474" as="geometry"/>
                </mxCell>
                <mxCell id="28" value="" style="shape=stencil(lVfLctswDPwaXTEkQYLkOU3/IzNxak9dO+M4ffx9oapUDEra1jdZwpIEsLuEB3542z+97obg3q6X89fdj8PzdT/wpyGEw2m/uxyu+jTw48APL+fL7svl/H56nn6/Po2R49O38/dxhZ8TTsiXERTcr+kFe4r1z5vPU/zxcLqJ95FKNoCQicM2IFRybAGOCgBE/VwNQPdMcRuQHHm7g25ZQHyl6mzOJOBAUijY9R05tx2f0yIBcqCk1ZNPJj4Rg/UrU7U9yyQJxAul0Bc0CgCURoG5ZYmcB4BKYgGsNQMpeDeXcM454CQqsU1ahAoCZKreVqnisibKtkylUEZZMzmxvIuQeFWJWnvAXzWtAkqm2DHbtd6vA1J/pBKg2AoT2x2ypwDKqutFW9akh0Q5LAAxUAVyXh5J9ezRDoukvQoCdHosa+wMIyIquUbmD4EmpJ8FMYQYrb9gnveUQYmW3A6zh/ynephhiVYEGjMVJJ+FB0iATBpdprOx1Oi+6WM2a+08UsPSKGugfJcTa2s8OtK9gFzI2VYruQoASKXs+qRRWcX3t2GJlIF8ku/dvgi8b1W/zsqnVArAKFVeK30AAC/NR2eAKggoLvf0vuHvetJNX/MGWmfQhtgcaI7PcEzS/DpeMEWkt2Yoc0lz6/tqvCOx5ykOnl9vHptvDm1I2Yjv1C+RBK4fuhFGmsduxBfbsKh3LZCyb3f9zSXiwb3G5K1VsOChk9LCHxGl7x2b/x2vDx8z+svheJxG/Nvv/Uyvr6b/A/z4Gw==);lineShape=1;" vertex="1" parent="1">
                    <mxGeometry x="-199.21314893317754" y="557.2664851174022" width="32.64615991137089" height="6.439191899742127" as="geometry"/>
                </mxCell>
                <mxCell id="29" value="" style="shape=stencil(rVfLctswDPwaXTEk+MQ5Tf8jM3FqT1074zh9/H2hqlRFSNpcepMlrkksgMVyCA9vx6fXw8Du7X67fj38OD3fj0P4NDCfLsfD7XTXpyE8DuHh5Xo7fLld3y/P0+/Xp3Hl+PTt+n38h58TrkaKMqLY/Zre+EQx/nnzeQKcT5cFoERyoQOwp1T2AUmoxg4QHCW/D4iVuPaASrkCgCPvOkDM5MM+IHjiHpAyidsHcLE7ZAWAI3Ei6WktlRwKWjkxACWaAa0K6GnNQgHskJli6QGeCmBJ/8+URpr/Yrs0fAtxzoO+yQDgGuuL0mAMiNxXa4UsZa2cfgcfKYFMK+DvAWaAoyyYpR5QyIENCjdK5pipgrSVRKXvBt823FxfnQ1AuwNUak3tuIv1gNEqlEwKWrturpdAwbQ/JVB1ksmZMqUM4pVCsS86TRjqAwVwL2BaEihiSZRSDyiwJIRbhLNEag2BmGttgjgDmHICAK2ZvjU/YLUI+WIBqCxUfepK5jOaC97m2Qtsfm0cZ2jVUse9bFTbexKgRwowLFXyIG+jfvUnUhJQK8c2KWeO4NjREVD6NDuop5plo3YOSouWkWkdRwW1Dq+KgjI4jzZCMGOzzaD/st47Z7VIEYw6TWyVhgRnmgJMa8YIB7mqRejlV61CRvLiW6vP+lVhH6gDM0dSyU+gD/SzMVTVw7zlZBWvFhKQiORb3TeAqEQCgBo0kzipzTxs+6NoAYvkb/Nq3YvMNGzv0DR9ETMKYVV6BRuFsBpTKoDIulh5HEkGWdahZJIWuenfdsBM1djmAPVUP+dVt3kQgrpqMRKfqQBO1XIakioMQb2R6R3+aEitvBEjAZ5LYCGQqNPEmnLsBbUPxZ4Heqm4FmAo8OqNrJdC3ktL3jRNbDWyN0CM2OU2sfbWF9Nk0KvpenOe0VwjgkrzHDMAX0GUITbXWeUYhbB5/0XW6+MLsz78u26/nM7n6ba+/G6v5/pqutqHx98=);lineShape=1;" vertex="1" parent="1">
                    <mxGeometry x="-174.691975060314" y="550.6007920404784" width="21.88394792487452" height="27.22493327854818" as="geometry"/>
                </mxCell>
                <mxCell id="30" value="" style="shape=stencil(lVjLUhtBDPwaX1Wj0WgeZ5L8B1WY4ArBFJDX30cbZzeWdt0ON2OmLbW21dLsTm5eH26f97ucXt9ejl/2Pw53bw87+bDL+fD0sH85vNmnnXzcyc398WX/+eX47enu9Pfz7XRy+vT1+H36hZ8nXCeWCZTTr9MXNVPKf775dDr/eHg6O8+JuDhAadQqAAiN5ABZKaXLgJxIuwdUSiBCZhrZAVSIGaQ0qHjSLVMFKbHSYAfonRRViSn5CJwSZK0kwwFGp9FBBFJf1S6U9fL5JfpSo0K1oPPd11SYKmAsa8I0wO83Us8Xl8dUxD5/qzCga484+/zrrKptDVk11P++SQIAJM3lWACDBIhOGomvkKVUQIQi1Jp/BHku8jbAOPvGEYUcTAKhqNJhhGqkJQIQh6qUVxH+Cn0bMGjoCgCE0cpGShk8h85RGVdId3twIaVGHQBGjo5ngIwAxqF6gDkeKOsw5XCM0ADp0WJZC8P2HGNl830uwyVA9wCtlHGE4dVaC3XEYZB6Dk3mJLcBPXpMTyQNVimotSs1RFpJvfhsLjSg1iHzrDwDDGCrpqUUABU20LAWDaOKScD07COOW2spAeIzQEipVmIcgX1K2qAZG6D5FjVrQ+PWSAfxlXytRcUDrriGtWgKZmyksTRCSgbooEomvuIjlEQZqdWk5uVdzDVwA1UfwfYkRUM3rbaGetU2gr5booLKZPIPgI6bus0Ntui7zF17ySt5tbvBMr0XsB4QUxOClNYjyADlXUPOABk0xHqMGoARQIlHBCDStgqo17d1LbJv1XlCnQEEpKQWIVjfskJt7z8a7zImDbRUWs+3YH12MwDmajtwlLdQARxsrecw5BoxaOrpahL2VtujAWku84RamlrnZ78t72hkdr6gy5LEu4/VOYEisS0nXhnmAXBXL7Ed7C5TcUo1eECF2rNdvq/Eiuze7m9hOZlaGnHgWNZx5YKSZh38pweMeH2YVg0gvfXyU6EDLB63nM9w92lxz2jLPLpwPgjbTA31WttQESOPpOr5mqWhefveFx/Xz9uHf29Z7g+Pj6eXNOf/j29l7KvTGx35+Bs=);lineShape=1;" vertex="1" parent="1">
                    <mxGeometry x="-164.27669168216403" y="594.5344507737393" width="56.152211114624606" height="11.626156799366754" as="geometry"/>
                </mxCell>
                <mxCell id="31" value="" style="shape=stencil(nVnZchs3EPwavk4BGJzPjvMfrrIcsaJILllJ7L9PI6yldgbLZpy3FYVezNlz7Ek/fHv89PXhlMK3t9eX3x/+Pn9+ezzpL6eUzs+PD6/nNzyd9ONJP3x5eX347fXlz+fPl7+/fpon59MfL3/NN3y/4FoXbROVwo/LL0FK+feHXy/nn87Pu/M9y+jmvEqIt8+PKDmY81VyI+ezRPv+IYHIM/C6as7HKCMRQN/0uwKy9EoAQ8awgCaNAGIIEqzOMGrmMqVsAYleAa1VLaBwMxVJyQKaFOa3ImoBCq2UipSsSJqksxuaRGtXLdLZDd27WvsWjLc8p9YPOUlkVhpSbWzkIpE7LjhAk8rCW6U7kYb0QfINVrKhUZKEfBuAhB5WpJIlkBtql2ZFKnXz/SGgQEUnEu4knoZNohWpRunESooEcwDEL7kBsZksi02tSCy9p8sGaAiNQADRm7UVDgg+RRu0Io7DDU6HBuZhOoAqowH0KI2YFSk/rEhdRQnNKNxkSQD034nSWiVY9u51y8Hj0IDjLAkg4AcRKWdv1j6o0hncah2HklSJHwoqlgOoZJJAyK9i8wHkGYkOSKBiPQ3yHEQH5FdxRXFsZfLmDdEDMhMpbwLsAI04DlZKyw2diJSrZ41ZWBkAwZwWAPEDgs8V6gkgRIYCNZYbWNlFL+JIAIDCchrd1SJSYinafbuEEsOUTsP3Y4Mz31S6eQDrBEDGjioBUFJFp+OGByQeGm1ROrGMW6hyXO12DChbk7pX+k4CZQ/orCjifYunWdkFICz5oIwEykGKViZSWmhm0AZrUuWacYyMr+Xj2hq/977HwdQPiGmQYFIUuVUJltTBd1h3zISUaz/liHRkJubq/wPwTNZoH5rW2Ci0h8PUlh1At973ZjtjXY0yyoIpVp+jKNSsyMXkubL3zffHrfHWdO56DUZkxRu1ZyqQLu9XKSS243IeFiImDVJtoDaeCstUORtKKo9jJHSsbHLIUq2HW6SlZ2za7XruQs5jbFZrIHT1gQVp3Wap3dzAWrdZqiwALFsZ4zWvA2YfJtJaF4rSjrhWP+WWSPmrqQdgQmwkLBAF3Yo0Z1CiNMIs2xZ6Trkc4Mw652iSOZhB/S5g0LLQ0LpZHeYugCldfCc2tw1Mh2uo/cd9RsvbXL7bmGTSMrSFg5FRLH9Wx82tDyEw+MEVzzt7pelpSxlzdXVHJGulmOloD6VdPsz1GwsN9Sw2aOzV4VkVpEAEquqHYqWbA3RVze8/WbbhvGPJK40fn6++9sNlbPps3mWBDtBl+N1KoJMhGFS9/HQ7hCro5WEECb6rXl+W+XWs+2e2T36vSbvzpEVFGquXh60A27LGDJLY+9sWjjv/Mqb7yX37/fN4eF/ufzk/PV2+Dez/7z8G4KfLhwT9+A8=);lineShape=1;" vertex="1" parent="1">
                    <mxGeometry x="433.20123658540933" y="523.0848707219684" width="12.373201206669364" height="217.78113285502718" as="geometry"/>
                </mxCell>
                <mxCell id="32" value="" style="shape=stencil(lVjZbhsxDPwavxKSqPM5Tf8jQJzGaBoHSXr9fakaWluz3gnytvZyVrw51E5v3h7vXva74N7eX4/f978P9++PO/2yC+Hw/Lh/Pbzb005vd3rzcHzdf3s9/ny+P/1+ueuS/enH8Vf/wp8TLkhtHRTc39MfTpz7/8fXk/jT4flC3Ifx+ixfCpEvEvH7LW7Ld310kvfiMpGv0t9N8r5uy6tKqCAfEpEvkh1+n9gb/Vofp0Q+S1L0p9+WT/Y5D/KJ6J+i6KyPiiP6pyR19k8VT/IhZQlltjfRhDBAThPAQk5PKOLzbIGFgLjUADqboHZmoIA052gMEplTi9Q5KWKVyKJWxc1RsLhEplIdWTYA2Y3E3QKEOAOSZOalKjqfUFQKPwEytboRmauA7EXnVK0qrRFARqNrGt3gKqAELM5aRnlcB2SJFQGZAMzEDCpZZIgNNUpRBCTipdpEEwIaSb5mHQOMbsPR1wFmYkRAJj24VclzxTU3zrwOaBLnE5qXQrxkgDbb0HQU7SZgLtGWaNcwQIETMk1vA7g50m0pqS0vQV+yTyipaYuDWwEaC1zC2dwBLDXiMPECEJkNitPWrIqk4gzg52ztVjGjbZ7PTcCsUjIfOgBOUJ6tOgb4AghcJetC4KWlyrfc2qAJWHYxlayReQQoc2vBKWqAyFSy7h3RBtaMLRECxMHzbG2rXAq0GXvnkBqa4xKzukkFIzIvuYZkxhxH+0xF9tnLnPdK7GSN0pmuMfBJxxn05xGWC15RKebYupCLSwAfczB5u6uJ2WVFEw3g2eT1UkGlOkjUdTIQkZRZbCpJjtRWfWBRcosaQ1lbhkeSTca984o9MBuSwzFXA902kscRYYyFsQcDQD8uH/BEO2F2qxHLwpjoygZbEVikDYBsmqeGAaD5RaU7XFym4ELwC6XfBoCdQwOtuK7xrFJfmxjAOBusrZZ8bA0yo2cveUd7X18UoYBoY+qLKHRjunGYCxOUjwTSY3SJ0VmeLbp9jwRiTMvZtkIk0qP6ti4aYJ+ptJi9H/E5yyuJsKmTUJyoE5BNVupNj2OnDBZ0VdwhMSy0rbixzS41P9agDXHoKUkSybTV2F8695b4nMcqiSoDabzsfBviCa+PWHfz69usxpJsOOIszthyQM7l6M7yyau4D8Xt4Xzr93B4ejpdGl6+x1tC++t0w6i3/wA=);lineShape=1;" vertex="1" parent="1">
                    <mxGeometry x="153.01919068429993" y="559.5108440777897" width="70.28753070679613" height="47.4828386952172" as="geometry"/>
                </mxCell>
                <mxCell id="33" value="" style="shape=stencil(lVrbblw3DPwavwqiqOtzmv5HgDiN0TQOnPT296Vg6GQ13DOnfluvNSuJ1yGpB333/fOHb48PKX7/8fL8++PfTx9/fH7QXx5Sevr6+fHl6Yd9etD3D/ru0/PL428vz39+/fj697cPc+X89MfzX/MX/nnFxdDaBKX47+sXQ0J8/ebX1/Vfnr7erJfQZF8fQ6rn63X92lrfe+jlfH0OWvb1LSQ9X19Crfv6EhL5/RZi3tdrSON8fQ857eslJCKfEcb++20EJecXCSXugEYFJCZR3QE1tE4AOZSGACEqkxpi3wEldLZDC7kioBGhitmAB+RzgJlpckdqiQAk1IaASo5khioO0CIB5FDlTTuYEIcDEE1PW40IKGyHjsY9AcT4zFqLOgARq8bQvZSIaWgKAlKqoZBLqwaFHfoSw31ADtl53GAAc6D9SObSmUjJ7oBibcvL7wNk2eYBSGGQoGGAvJt3tUszPcgKugcgUdMwAPh04T5tmh57IC5xHfLUNPYj5RKEidUAu5R08FQS0YFMlUP4HfYjpUvFxX2HlELigLJLyWIhdaC0sscB0NDYpRV3MOtmUs1oe33li/vrK165cctzsb7SEKMW6gXWC9FZjs5QQyauk2XRg8PsQiFmmtNKNIeKabTIeeXKQ2HUSM3owTPjYhD315v4BNazcJeNHSisb0yeAwmYrmh2n09ZpoXYRc9fxMlHqQcYYOwXkLFy9X3AEdkOjVmSYldQzDkzXBIZGSADwIyURFMDlN1IMw/wE7DvYHIWfgfdc7/Fa8qDjwMcfhYpsTVA3sVay8qkZ4qDUqFJUOJq0zTAlMoS9NmR4h7rLPcXLlaIpj3SaFGyKxdMDISOlIpH6pnrobkCpvAd+mKNB6DSvDn1KgjIRNNGDUAPBugkxlRdJdRNEcaKwpoxKRhASZQ0U6sdAZUYX62Yyg0wSJgxAgUVgxWezKerRaGEAKa4ZuzC7VCJ4owEqquF2aWbUQNFAEu25l++2lZ2h7rUdCsltkNzUmqUR5oHN6dpxlSNvXen6UQ0bS4/nD90Yq3m8t0BlAHyUtONT7Nwb78H1acBWI6zKzYXNViZNLsoEQEsT/eBbHs2SojiRkSi0TmfH4L03OTG2PZwKcsAje2Q7+wg7A51UZGbbg/doWP7pittJ43hwsyR6s8AQB1mQiH+MO4p7mIHHypZCSAxYqPBzIuRyjGQw5m1sHhvgLafaVoLMdcppv1I01o4QHbbGKYIdqSjD3kDYD5qADAmAzAqYICU8Q5U1R1be+OoYO8Djhx4KG5wPXhAu7p0dNyBUYF5aQBkbksdNT19lLlcd4GJt3CnaTQEXFgrUGMDDBZnxp3wHfkOqIe6xPAGHxUemTC6jiW400AD1ic0LU4fBZdLoZJLGACKmqG0IJjhuCKA9VjfDmh3jsTa76M4KWVasM9/NwSwiYAdAEoOA9BIJu7SmfL7mdr3HGS3YneYltMQIIxt+OBaOIlra2BwA1BCHsxfoM81eKNohqGIAGYakyY6KTEH6oKNZeMfrJfWnIsagLUbm5ubjEq5wKTrAwFsbmIFQVYEMKrbDlJ4ABq/g2JBYAB6B6vQIwLYdGkWZiDWTnte1XEyAzDzrj6z87Jplq/JAUiYmQWy34GkoFmCux1Y02sW+eIArMh3IwQDMBctY6Xl/wto2Js1TXfWw6pOD9xaS3Y7lNW6OO3DgZR0tS7Oml4YKoXfIa6ceZOnGdPNA+e5M3iylnfHyGexkBXIBhAYPI4V2s4AoIfGCVN2+cFcarBnAQMbRmbwkekh4pHKoIMBA0BCKZmOyU3TwMjsVpUorjgHykrbOXYkqEaV907miG4Pxiq0/2NihVZIqnz8MLCXmOKag59pGui9VNq9zw27ZGKVH7l0rpiBDMASSs7YwxJeKmbXZpaypmb3AQmNT3hiz7LKhQPQaG9dB1qrdA7oi3QegEFLFG1Y+c05DRsxF+RLZhqsftCMb4mS0Kihik2vlK8AUKFoXLXgGQAqP62UVU7ArmnTPevDqZsEmcEzfzAAWGtJtM2sisVo6ZR7a8ZAZrGVvg3IK40f4V5oQe2H0rPxzI5UcIRn5JrxpQmAptel4pAkCi3L9JgT3/a8+KMO7FZ2mtjVZaDZWyc7pLEGFDcANrLwD4Rmb529KHJPkC6e4/lHTgZgHuefUU0A28E91JoAIlb/FOxqB/fYbAJYc8aVZbPjevFgzh0pskd/1Y3wLgCu2r1QnCiS9ckqiVhFkMJdTLMkOms9Rj332xRoe+ahjME1V8Up5fYVX44MPuDIyJVmscEi952KTAkvkUVzjvUXT0fRmX+2/O6ud++tbpqKJwBwzdnnpBtkt17p78OY2QTEuGREJxiNvhqNrp1e6fTHtVjH8br4bD2ch789ivjU6mJE4Qb9s79KnD4ic56dQSr/4oYyLKO99a349Xr78PNh+qenL19e37Xf/h8fsttXr4/g9f1/);lineShape=1;" vertex="1" parent="1">
                    <mxGeometry x="394.7697150112258" y="552.1123653070097" width="246.89267133560998" height="49.61020984485367" as="geometry"/>
                </mxCell>
                <mxCell id="34" value="" style="shape=stencil(lVnZbhsxDPwavxKSqPO5x38UaNIYTZMiTa+/76iGNivKO0He7DVnJVLkcCif9N2Pu0/fb07B/Xh+evx68/v8+fnupO9PIZwf7m6ezs/4dNIPJ313+/h08+Xp8efD58v375+6Zf/07fFXf8OfC641Ud9Rwf29PPHi4v8HHy/29+eHnX0NUmd7HQ+u2heVrJN9kuqO7XMUVyb7Ii0d2yfYz+/3TjQfAyL2m2dAoCtolNZmQJKix4BQResMqFLIlhCSkCYADqGQLYUseQ5SiFKZD0H6b3tAHXG7HiUvYQ6r4gk5t4QVZqcRN1/pQSc3A7K0QjIJP88+aJNIUq8ic+YV4FUmgJYlzGFFshTiNIonz07HJI1UTytS5lyKSBbidPPSTPk4aSSsdUnvhCdkSyVKmQs6FXGBHFwSP59DdhLJCimPit8AOsJwHYD3zU7nTJ2Oeex4A+BkyJZWEih+hOE6IIz62gAqSqIEQJxPuiSJzIcgafahFPHMBy9+jlJpI27XAc5SZXU0NRS0NW8J7M+yVcuorw2gnFtBZGaFNMJwBDDtofLU6IA5+SoqjkQJgDifdHOUjHWhmaa0hcbtfRsgiRKaQWr4OZfAVDS9y9jABqiUKgEwFQdAZbmULJGBCwMDLP0BgERIAGFdATRb0aCWLbHUQM9seQGQLaGNt7hsiaSGX2imdwxy0tAuYQEEIh2qJY1+bmRH1aq3nhjk2DxIxlkAS25oI288KJRZg5O0ACI5BYifoguABFXV8l4HcN4zDasVKhzQTmK0gMYqeiWZOrTHUYGmpUAziRJWsGFt4yiPfMhLcrOGBfXllgItrDugYyYLYN0B0t8Zqe7coPOjZKplWYKcHNI1+sUJVqHeasQ+QTFBJtVEqVKSeav9pu52vaGSDgpdYvafhhC/au+WACmVJc72294+qX01CqDSZuhFZ5bvAoClxHjbTmGwVqi2E3ZFzRqbHcWgkVgjXGYMiDBWyNXGEyqPMQUS1NAjdCSrGR9H1e6UKpugfRsJsNPCnjF2sIUPtZ1YZ87iZwD0PEtSRZbOTIGJgV1LQOWVZSZhW4pxGWIcdRpjl7k2wBzEbgFysIyNVzCFhJgYeY7BiREwRr00Hxymz0CcxsidzQSdByUfDpNmhUjlQkZ6m4E40OkzVauQ0IdeUappziUoS2XdH3LBACIXJN7eAkCKRiYLw5hAdrcxLJey5ex+3cOavx1W+xbZsdnchtJNjAG2q53dlRjzGAxgbgERAyaENSwTDL0c6jc7hiYpYSQ/SPflWpKN83m93uKVU+xllaM51EndG3s2pVZvpRFnIzQxjcbeMfu07p+VJZq2aYNcqDVvZQV/f1vYlO+/X+W9JT59qqlviH8XfcnYs3zbCdcXQGYXf211uJKSfOs9/uv2+PDyp8Ht+f7+8p/D/nf7JwMeXf6g0A//AA==);lineShape=1;" vertex="1" parent="1">
                    <mxGeometry x="-171.32356695343037" y="723.035385688358" width="12.778343828640118" height="191.86790222009904" as="geometry"/>
                </mxCell>
                <mxCell id="35" value="" style="shape=stencil(lVnbchshDP0avzIggYDnNP2PzMRpPE3jTJLe/r6iDs4ivGfHb/ZaZ0HS0dU7vnl7vHvZ78i/vb8ev+9/H+7fH3f8ZUd0eH7cvx7e9dOOb3d883B83X97Pf58vj99f7lrku3Tj+Ov9oY/Jxw5yg1E/u/pQXC1/H/w9ST+dHheiEeXrXiM6+LVBW/EPx5cFA/sPFv5AOTFcbLydV2evKNo5H0C8uy4DPLelQzkxREb+Qzur/aJVj4B6zM7EiMfkby4lI08I/nqkn3/x4GX2UBOgpEPDORTZ8unvAd8iLX/vLA/kE/q/vH90VXgX5WXOvJBDQQcpoBsCJpcBYxogNFCjVMbVxpd1oII+KwBRp05Odo4YbxS1CgAUTNbKYoTwkqPgESugjShgGIAdcvRdQRIdh5ZiZynAZDZZaSDAsZQKMptEAsKCCM1Sup2uwzQYJCrABoNIzVKhOEm1G98BmjAAmpIsvm6EFRaiis0AUAAZeoJdwkAfshqJXOlACMu1/6+BSADs+oF6gQogEtFOjcXOqC0Xb0tI4V7obgMEBdHequnCdXZ3P26AAi6UrFpRsmXgVmrlipzQu6eWQNUYyV9BaBGA4xWqqGXrzWAGAB3rdYApr2oCdZPtZKJB/VMQTrIpEN2CXk62VTZACBEa7SOa1cC9K7nPLdQWpDjtAmL1qwFhGglW+PUcRmxVQEmL1Xsae4lcEE+aCXu9WZBbxTTalYLiFgHmVJlhGVX/UrFAiICFMdTfWB0pWq7z7LB1mrJVwrsV4P3tiHT3FaQEtUWCHV+RXSt1kzNNYh9xfbQLXuikMvWrp9PVl09xSjqf64H+CmCBGZjpT8lC0D9jxYce0KC7NNuh7MFIH5n6WV5AUB01QaMpiuh9C3KJZkAgEsiUybbAPCFfO9R/+O71ZfpGw0QMpGv4NaYJrNW2M7ozGRHdL8xZUnvXhZKFDT2pd7jLYKa0AkTYKPVbQCTLLX7BtxQAI2eU3qh3NdOGCNIcKWOmoZGz8nGcBynKYhhYlKAjLkyZjiYKSCNSm9McgqIo1k3ZsUYbde3MY02wFXzrgLYjOAF7nAUUMYT2tYIUSPYBihoTAE/cLGdqwIQl9SIZs2iAERvDrZNVEBCi6viqFoA6lwp2V5AASgbk75vshKKOHWTSUwh9AhZW9bZZeB5m3IZQL21WADQdmaaj4OHjk52m6byGRnV5ek+aHYlu40KODyD3b4FvO4K07YUZyTfOXZO27BWeWueAqdcbxcmmk8B4aZOUuAm2XfLnZMppLN2LyaV9gcr4mao4h4NK4Y3qx7CbbOdU7VaQtpctZLfFNcPn9v/h8PT0+nPg+Xv9t8CfXT6p4Fv/wE=);lineShape=1;" vertex="1" parent="1">
                    <mxGeometry x="-204.7292056622341" y="677.8181413915452" width="88.90998837811821" height="48.573978400571605" as="geometry"/>
                </mxCell>
                <mxCell id="36" value="" style="shape=stencil(rVfLbttADPwaXwnum3tO0/8IEKc26saB4/Tx96UqrCLuWtMG6E22hhLJ4QxXu3D3enh42e88v14v56/7H8fH62EXPu28Pz4f9pfjVa924X4X7p7Ol/2Xy/nt+XH+/fIwIaerb+fv0xN+znGRip+CPP+a/wieYvzzz+cZfzo+r/BClS2eKbhtvEsUqgnwiThvB3hH1ZkAV2BGmpIXE1BJwAtCpGxLKJT9Nj4y5WDwmbgCfKZYDF57DPJPnlK2LaUInp+ZvH2+bwnexhcKocNz2saX0DPmWoNv4yslO0JMhbfx1bfy3vGM8JGk9vUCvmohjjZ/7Rh6gfQamGYQMFZrI3RhLEMKHC8ltghlvQDZ6CuiHeoslFCAqsAWIZ5CAQG53V5k40lQ1ZGcFaa+U0DV1VHuhFlh0VL7Sa3qHmD0REe7K1qrAlRLaiUu2lexoZTUrGyXkhCjlIaA6JplbqaU7PRlSoC4sWgXKAPDGNsasYAG3lQ/4PnjYDhyH5q8Qg4Y9jjauhEy1mcnnuAoAQ5u6DMWuNZGC8iLbW6ajG1SkTYp/2hjyqOglAaf1EfAlAYjXvXhP0UIU7SNncgBASVS6qqQJpDb6016sjUA7eesvpj7PqHpSLHZ3BKQSQB1UVOyklYfy2DCJ4vovDiSB0WHwTSUGrR09UwU7DRVpgTeoIeQ3osDXIou9yrVtqIaanPqFV4Ab2lYP4Uq6hHVIR+0G3T7cc9BAfm4dnfdUUAy9xxLhOdUbqtvbRhA/9xOdQue4WobLE+FkcBa0CVgJ0h1UcAm1FOgzSdi114serU4UT6+F5kewlA+oc37gsdr86NfRn/H68X7Z9jT8XSav+LW9/vPNv1r/uQL978B);lineShape=1;" vertex="1" parent="1">
                    <mxGeometry x="-43.15055372402935" y="717.2088340927633" width="43.759240960989246" height="6.582331814473491" as="geometry"/>
                </mxCell>
                <mxCell id="37" value="" style="shape=stencil(lVnLchw3DPyavaL4AAny7Dj/4SpL0VYUySXLsf337skWV0NwthXfViP2kAAaQINzyh++Pnz6cndK4evry/Pfd9/Pn18fTvmPU0rnp4e7l/Mrfp3yx1P+cP/8cvfXy/O3p8+Xv7982lZuv/55/nd7w48LrkWpfUOl8PPyJEoK/z3487L+8fy0X5/E8rQ+iSpZr2I2rVeJmayvUuf3F2lsvUmf32/SjK4vcbY3iPIDlTYDonQGKBIdIItWAsiS3JGKhEIAQepsc6xi8TbAbLGhUaNNx/uuUQ4SiFsNrHG0iCPwh4BqEmfepSyFEK8m6WEGFEntNqA0yQ5g45DHgCzVAbokYoPi33UC5CiZJIMirjoDQA22Q5QwuzUXKQSQzVNje9IJYMnP3KUnAkiSy5zQibo1BymzDapSSD7A6zq7VetI8mNAk5ZmAF5BbADA7VCQ08RLALgULSqNsHXbYT5SsVE4bxmdZvJVZDmh9+bWOadrHk9uBa7Ngat11MJjwLXyXgF9hPIY0H1vsES9BCK4fLAqgRxJm+eSdQkkcMhpnd2KBsZ2KAs1tg5GdqjoZ7Nb0WIY+eDEPle+1kdkjmtr8SnawVbWc+Mw8Qrg1OjBF+PO49D7aIFXQBMjRwLAZi/hSSTU6Nc2vgMwodFVtHuAkTjA633ZgVW+VcrEgK5IjLDrkfdbsDaKyrgAGjmTLVUAABZq9N2+ABKpxgB4MjXphBsAeLoiaxm/wb4FwDqK5cUG425tI4V3gEZsQKjDAmByBmTKuuzA6Lra0CSQSON9JS1eIoUJcXVyBoBKdtixeR9qVjeaVxvYNJPIdZSy6gGVuSkOubNPCCam60EGMRtQLH3t61QLbC1qATSyg8UlIfrw23EGtdH59259R0wvRgcSh98HJN94wcdM4rDJHRfpQum6CSrXITJ1KySbObYmOrqqLVziQw2Erc1xQGtnGQStXZwWUOnES9BkOrsV8iQyqWsegB7DamVabAB/I8k4TIbJDdSJtsWIWumEKM9pDNxuuIQQrayNjn6zU7psgzJq+05KMyWwqNDCiz2CNhu8cZe8P3gpUxKVDWHckOzHGbrele1tXiL+CV6xQocrybToRxMkRiTdM/krpW0wIFmgvjsjj9h5bIyPu6E4E/+AcI5AGLtZpQCl4zLYB0bppTljAGQhgE+ju2uo9N4KTnJOxRNWHnGAvFywsKjBxDbTGodkg0xeKnbso9jcKo/ZXXQ1ehm48Wb2Uqz0Kk2jVLeDUhmm2RevmCmXkCpxjnSM9IISAHOAIJl4SYvo7FajeluLv+cq0onc3i6h3PWKJLZeR/l/u/EtrJqq7/yRNn6cx5WjQPUXilvpbr2xiHVfHsNw8HH3gIpQtz6xblNHWr2tZ1cSaEbqz8Nm7bqkGR860X3Tch6SM5imUnLrI9e/1Z8ns/Xd8zOMK/7/eXsRKP9/+wvGu+vx4+1zyf358fHytWX/f/95BY8un2byx18=);lineShape=1;" vertex="1" parent="1">
                    <mxGeometry x="149.41057588762396" y="685.290630132462" width="12.00350173960328" height="177.45635553977536" as="geometry"/>
                </mxCell>
                <mxCell id="38" value="" style="shape=stencil(lVpJchw5DHxNXxEgCW5nj/0PR1gedYxGcsjy9vsBp4OlIlCdLd2kLmaR2BIL65Q+fL///O3uFPn7y/PTP3e/zl9e7k/pr1OM58f7u+fzi/51Sh9P6cPXp+e7v5+ffjx+ufz/7fNYOf769+nneMPvCy6Q5AGK/OfyQyvE/P8vny7rH86Pu/WJcrXrm1xfnynIur5SAu+v1LJd3+v19YEp9hXQSCIARJLgAB0AhJLbIaEjFUrNAiLQUWhOSfpLuA6IPB/vtZQAIFBjC6hAS2pn6RaQEUCoGoBQAFpSzyirluoNoQvltAIi5QIAlcoKKAUfqVFdnTv3KdVxMDDxKkOO1BFAw221gxSo1hStDMKUGwAk6qtrJKGMjpSJywKIHWopFeutantGR6oUVy0F3QEdScNlJYGQoWukPjllAwSKAKBKLKsMhQqQWQJ1oySqgMVEw2ddz5BVReXLZn0HjKFeE9f3CzWgUVFajWt0kqD3d/t+5Vm0QdbzGpMJCdBodo6tLJjQDupkqwiD1FDmyZbCBuWgHQr11U81ElCs5WaTp0ZfQUfq1Fa1JkzDJdhUIpFSBoBEaXVsNSWDSChiGSmnSQjHgGxdO1cYa8XxtkolQK1FeXu1tO7ZQHYrbQbvBujTlMdFBpOYVKIygB1qsN7aIgVUxsRp112dhIqGKtOZ9wBgh1pmBG+APJP8McCxqgIECN3YkpICEnDvoZPkAMBbR4lQHAAYbuiEnQwggF4rrzcK3ZWoqwMA9+7KQs0BgB16mqTyRqG7Po4OAFyjt5le9wCgpe4KHwUUYLjeXdWtCRRpqU/q3ZW4DMhYAd0Yrs8Uc6UR2FLsRKhpUDGmW7RVajUNog0FmOZHTVNBQCjABESvkFzVEMY3+pa5rwGs0LgT0MfijgS9r9jMrr+gbkYfF3Mkwb5RbEfWI6zGDgA8U8Ybj6TeV94ltLY/jALCqVUjqCMWcIa7wZXeNdqWid/ofBqjEWnJuffo+TALmABqHTb3xzGKEJ4GeoI5yBONxihqNjyVDW9BvuHIUo2Pqj5Pxx3PNN4PcBliAJCpXQ4agHdluUFMSEsujw4AkMFn6gEA/u1rgVsAV23cENrXMwOA6hmtmLxagfNpTWbZuMFeWqs+63wNVhs126pPAchwNdnqWyMEleujNmZ3JCQ0z35hlyAQMWk1H0wBhI9UqqNvgc2l9ihmRKENAZotaUdiZFC9QYDYeFCpUF1Z4gz5XReESt3CtrnU/pRRN9rsDtqUB+De2uiZ1k+0fQUyaEdt5pSSYMRpk2/YW3jG4DEgzb5t66gLnGxkJTIzH4v4SEx5de/YZwwez040P5gxQoY1nFQ3gYuwwpI8Ryu7gZoAw4nYtBsynhfFWUTuBmpoTqk7mG40xKm3axMy4xqhQEtLmCfetMRzInRtxufnP0itqTuAljNo7Nis0GP6CuyQtNQ23np71mrGvwKdL8msOreYZjgVGBMrM8IuGBCt85UE5z8p2OJEmQ8N7pK70tEkhsbwaiYzw2oBzrzHoN8A8HRmXEuZ4mSbCB8Dir3HGm0WcA31zWRimvHM2F/RjGIZCeEugRRQQRr110yvLcJxfe8ushSAmkt/VTbKcdTlywEADeLCNi/d1z/ouo9tsdHxrLy68qfCqbG4SrrAcilNDto1NA2pyDUPuAFidx6Bdw88Q2u3HumHnQESnHmzq9LjTNlX1rMLTeTVvgVl2O/petNG4yDgg8tclDrZTfcqJC+ePfmOuxCd8pyd77kORYw7f4F59r1fENxer3+8fq7w9fzwcPnaYf/cft6gP10+jUgf/wM=);lineShape=1;" vertex="1" parent="1">
                    <mxGeometry x="118.80533718701076" y="676.4466251368149" width="166.21372693711578" height="47.525199231555234" as="geometry"/>
                </mxCell>
                <mxCell id="39" value="" style="shape=stencil(rVjJbhsxDP0aXwlJ1EKd0/Q/AsRpjKZx4Ljb35eqq8mI8ry0QG/2DN+I2+OiHd+8Pt697HfBvZ5Px8/774f78+OOP+xCODw/7k+Hs/7a8e2Obx6Op/2n0/Hr8/3l/8tdk2y/vhy/tS/8uOAixdJAwf28PAgU3O8HHy/iT4fnlXimkAfxQiVtiwulMIh7plS35b0jGdXxlVgAIJC4UX/uZ14HRCqjSmpC9gCQKccBwIEYuMgLVT8ChAJQKXiqMgBihl5SE/MYheTJMwAk4jQCEiVgtPrEjUanSgUYzY4CD4BciIHR6sRkMilQjAAQScbAldxDeR2QqdYBIA7mEleKo0oSKZRtQNTAjcknBSZfTJRHGySTgDhEVUksIINIJ6XvBEDJp4kQjUqJCohDEhK2gD9F4XrJCOSddWsBbs2arWwBEdiQ5QrAAxuKpzjyQZgqAkSqyZ6A6mTRylcsoIJIy1JU/jIOGlc/UlSfJKCSKIMNH5TlQKUaephWAA9OqKpStSoVUMhqoZAmAEiNKhOgUEQq1Sn5pHNwC1BGQHWw3CvAlBn1G+JDA4w21PjeCSaX1NEBBU4palTSNg0qn762NugnQF9XBepYKlVJRiol2xRbZBBgYlyLPbJBKT95SVDyaRc1gEQOA6LxEpNDKukJxgZPDqVG7G18ydZKARQBBcjEaUHpnXpcV4yrONL2hAwngZZLbFXySCVNNVPIhDwmUJq8BFWqViWNAx5DHTlTBRj23VY2zBHa698pTKPV6jjIIOmvV4RIyE1lAtQ+pP0nQKBcLSADlTROZthosURdcXHiCuDQwuH7ML/yEoNQl3KlVmbQgnQUSBMAVQEdNtI4kjVOAYCOM7Zs6Al4YMpiAQzKho5kZoFoRgOVdPrnYt2KCpOOlWanaTQHkdbB1YyVraOASOtoXKIFoNI3D98rml9HhCmZKhwTeR4ecH6zBtZYnXtx29yCzAmBKrC67Vmj1bIM8FubnOlyOrkiUuuS78dQl9rrwtY2agq+csqD7AtTHHLuA/x1gLMntCUEMMjXad8tsKX40jfDBcDQBh97E1yW/AhzyXs7YjEufd7ZJZ9x4GS62HBwe82WPxrIBCzQqXY0QL0cUF70rr/I6wICyOPs9wscG1yfN5ecgDviNAGkTtUt8ZHI3O8GtpQZSRZg7Zo46XuCb4iLFUe6+94hu7iDNzG+5+2bOOp/UwHCRZftwra4akM8W2UyzEnzdQ9vqf7xdvRdcf3xdhH7cHh6utzjrt/bi1t9dLn05dtf);lineShape=1;" vertex="1" parent="1">
                    <mxGeometry x="-1.210405211720854" y="677.2856262042892" width="91.5698720883463" height="47.33581386010701" as="geometry"/>
                </mxCell>
            </root>
        </mxGraphModel>
    </diagram>
</mxfile>